<svg width="492" height="119" viewBox="0 0 492 119" fill="none" xmlns="http://www.w3.org/2000/svg">
<g clip-path="url(#clip0_2039_169)">
<path d="M56.7614 17.4139C56.5597 13.6189 56.3329 9.03955 56.3581 5.62403C55.4507 8.83715 54.3165 12.2274 52.9302 15.9971L48.1413 29.2291H45.4695L41.0083 16.2501C39.7228 12.4045 38.4878 8.86245 37.8577 5.62403C37.8577 9.03955 37.5804 13.6189 37.3284 17.6922L36.4714 29.305H33.1191L35.0095 2.0061H39.496L44.1337 15.2128C45.2679 18.5777 46.2005 21.5631 46.881 24.3968H47.0071C47.6876 21.639 48.6706 18.6536 49.8804 15.2128L54.7198 2.0061H59.181L60.895 29.305H57.4419L56.7614 17.4139Z" fill="#213A8F"/>
<path d="M68.1549 20.2476C68.0754 21.1549 68.1937 22.0686 68.5014 22.9254C68.8091 23.7822 69.299 24.5614 69.9369 25.209C70.5749 25.8567 71.3457 26.3571 72.1958 26.6756C73.0458 26.9941 73.9547 27.123 74.8594 27.0534C76.7088 27.1073 78.5482 26.7622 80.2533 26.0414L80.8582 28.5714C78.8075 29.4271 76.6006 29.8409 74.3805 29.7858C73.0765 29.8674 71.7703 29.6653 70.5513 29.1935C69.3323 28.7216 68.2291 27.9911 67.3173 27.0518C66.4055 26.1125 65.7065 24.9866 65.2682 23.7512C64.8298 22.5157 64.6624 21.1998 64.7774 19.8934C64.7774 13.9985 68.2305 9.34326 73.9268 9.34326C80.3037 9.34326 81.9924 14.9599 81.9924 18.5525C81.9909 19.1115 81.9488 19.6696 81.8664 20.2223L68.1549 20.2476ZM78.5645 17.7176C78.6687 17.0048 78.62 16.278 78.4218 15.5856C78.2235 14.8932 77.8803 14.2513 77.415 13.7028C76.9497 13.1544 76.373 12.7119 75.7237 12.4051C75.0743 12.0983 74.3672 11.9343 73.6496 11.9239C72.1847 12.0313 70.8131 12.6858 69.8053 13.7583C68.7974 14.8308 68.2266 16.2434 68.2053 17.7176H78.5645Z" fill="#213A8F"/>
<path d="M86.3776 15.1116C86.3776 13.0876 86.3776 11.4178 86.2012 9.79855H89.3266L89.4779 12.9611H89.6039C90.1856 11.8453 91.0686 10.9165 92.1518 10.2811C93.235 9.64575 94.4746 9.32945 95.7286 9.36845C96.9436 9.35243 98.1323 9.72334 99.1241 10.4279C100.116 11.1325 100.86 12.1345 101.249 13.29C101.789 12.3051 102.527 11.4436 103.416 10.7599C104.653 9.81941 106.176 9.33676 107.726 9.39374C110.247 9.39374 114.153 11.0889 114.153 17.8946V29.305H110.675V18.1982C110.675 14.4285 109.314 12.1768 106.441 12.1768C105.496 12.2178 104.587 12.5509 103.838 13.1306C103.089 13.7103 102.536 14.5083 102.257 15.4152C102.058 15.9844 101.956 16.583 101.954 17.1862V29.305H98.5012V17.6669C98.5012 14.5297 97.1149 12.278 94.418 12.278C93.4059 12.3334 92.4371 12.7082 91.6496 13.3487C90.8621 13.9893 90.2962 14.8629 90.0324 15.8453C89.826 16.3949 89.7234 16.9784 89.7298 17.5657V29.305H86.3776V15.1116Z" fill="#213A8F"/>
<path d="M137.72 19.4378C137.837 20.7771 137.672 22.1262 137.235 23.3971C136.798 24.6679 136.098 25.8319 135.183 26.8131C134.267 27.7944 133.155 28.5707 131.921 29.0916C130.686 29.6125 129.355 29.8662 128.016 29.8362C126.719 29.8553 125.432 29.6009 124.238 29.0895C123.045 28.5781 121.972 27.821 121.088 26.8673C120.204 25.9135 119.53 24.7842 119.108 23.5524C118.687 22.3206 118.527 21.0137 118.64 19.7161C118.523 18.3789 118.688 17.032 119.124 15.763C119.559 14.494 120.256 13.3312 121.169 12.3504C122.082 11.3696 123.191 10.5926 124.422 10.0701C125.654 9.54765 126.982 9.29128 128.319 9.31774C129.621 9.28705 130.914 9.53337 132.114 10.0405C133.314 10.5476 134.394 11.304 135.282 12.2599C136.17 13.2158 136.847 14.3497 137.267 15.5868C137.687 16.824 137.842 18.1364 137.72 19.4378ZM122.244 19.6402C122.244 23.9412 124.765 27.2303 128.168 27.2303C131.57 27.2303 134.091 24.0171 134.091 19.6402C134.091 16.3259 132.452 12.0502 128.243 12.0502C124.034 12.0502 122.244 15.9211 122.244 19.6402Z" fill="#213A8F"/>
<path d="M142.206 15.9211C142.206 13.6188 142.206 11.6201 142.055 9.79847H145.155L145.281 13.6441H145.432C145.771 12.4491 146.478 11.3921 147.451 10.6243C148.424 9.85639 149.614 9.41684 150.851 9.36837C151.186 9.32708 151.525 9.32708 151.859 9.36837V12.7333C151.457 12.6906 151.052 12.6906 150.65 12.7333C149.44 12.7948 148.293 13.2914 147.418 14.1323C146.543 14.9732 145.999 16.1022 145.886 17.3126C145.792 17.8644 145.742 18.4227 145.735 18.9824V29.3049H142.206V15.9211Z" fill="#213A8F"/>
<path d="M159.472 4.28303C159.414 4.82936 159.156 5.33476 158.749 5.70201C158.342 6.06927 157.814 6.27244 157.267 6.27244C156.719 6.27244 156.191 6.06927 155.784 5.70201C155.377 5.33476 155.119 4.82936 155.061 4.28303C155.054 3.98876 155.107 3.69614 155.216 3.42289C155.325 3.14964 155.488 2.90143 155.695 2.6933C155.903 2.48516 156.15 2.3214 156.422 2.21197C156.695 2.10253 156.986 2.0497 157.279 2.05662C157.572 2.04577 157.864 2.09611 158.137 2.2045C158.41 2.31288 158.657 2.47692 158.863 2.68623C159.069 2.89554 159.23 3.14557 159.334 3.42044C159.439 3.69531 159.486 3.98904 159.472 4.28303ZM155.414 29.3049V9.69727H158.968V29.3049H155.414Z" fill="#213A8F"/>
<path d="M175.653 29.3049L175.375 26.7749C174.679 27.6987 173.775 28.444 172.737 28.9497C171.698 29.4554 170.556 29.7072 169.402 29.6844C168.634 29.7442 167.862 29.6428 167.136 29.3868C166.409 29.1307 165.744 28.7256 165.182 28.1972C164.62 27.6689 164.174 27.0288 163.872 26.3179C163.57 25.6069 163.419 24.8406 163.428 24.0677C163.428 19.3366 167.612 16.7307 175.174 16.7813V16.6548C175.25 16.0462 175.188 15.428 174.992 14.8471C174.795 14.2661 174.47 13.7376 174.04 13.3014C173.61 12.8651 173.088 12.5327 172.511 12.3291C171.935 12.1255 171.319 12.056 170.712 12.1261C168.932 12.1322 167.188 12.6312 165.671 13.5682L164.865 11.2152C166.801 10.0622 169.016 9.46693 171.267 9.49483C177.24 9.49483 178.702 13.5682 178.702 17.4897V24.8268C178.673 26.402 178.783 27.9767 179.03 29.5326L175.653 29.3049ZM175.148 19.1848C171.267 19.1848 166.881 19.8173 166.881 23.6123C166.844 24.0627 166.904 24.5158 167.057 24.9407C167.21 25.3656 167.453 25.7523 167.769 26.0742C168.085 26.3961 168.467 26.6458 168.888 26.806C169.309 26.9662 169.759 27.0333 170.208 27.0025C171.24 27.0303 172.254 26.7295 173.106 26.1432C173.957 25.5569 174.601 24.7153 174.947 23.7388C175.073 23.3722 175.141 22.9881 175.148 22.6003V19.1848Z" fill="#213A8F"/>
<path d="M209.729 0.639777V24.2448C209.729 25.9906 209.729 27.964 209.88 29.3049H206.705L206.528 25.8894C205.895 27.0966 204.934 28.0987 203.756 28.7794C202.578 29.4602 201.232 29.7915 199.874 29.735C195.161 29.735 191.531 25.7375 191.531 19.792C191.531 13.2646 195.514 9.26715 200.277 9.26715C201.436 9.19331 202.594 9.43103 203.63 9.9558C204.667 10.4806 205.546 11.2734 206.175 12.2526V0.538574L209.729 0.639777ZM206.175 17.768C206.174 17.2666 206.123 16.7666 206.024 16.2753C205.769 15.1187 205.132 14.0824 204.218 13.334C203.303 12.5856 202.163 12.1689 200.983 12.1514C197.328 12.1514 195.136 15.3898 195.136 19.7414C195.136 24.093 197.076 27.0026 200.907 27.0026C202.129 26.9957 203.312 26.5708 204.261 25.798C205.209 25.0252 205.867 23.9508 206.125 22.7521C206.229 22.2444 206.28 21.7272 206.276 21.2088L206.175 17.768Z" fill="#213A8F"/>
<path d="M217.594 20.2476C217.515 21.1549 217.633 22.0686 217.941 22.9254C218.249 23.7822 218.738 24.5614 219.376 25.209C220.014 25.8567 220.785 26.3571 221.635 26.6756C222.485 26.9941 223.394 27.123 224.299 27.0534C226.148 27.1097 227.988 26.7645 229.693 26.0414L230.298 28.5714C228.247 29.4271 226.04 29.8409 223.82 29.7858C222.516 29.8674 221.21 29.6653 219.991 29.1935C218.772 28.7216 217.669 27.9911 216.757 27.0518C215.845 26.1125 215.146 24.9866 214.708 23.7512C214.269 22.5157 214.102 21.1998 214.217 19.8934C214.217 13.9985 217.67 9.34326 223.366 9.34326C229.743 9.34326 231.432 14.9599 231.432 18.5525C231.43 19.1115 231.388 19.6696 231.306 20.2223L217.594 20.2476ZM228.004 17.7176C228.108 17.0048 228.059 16.278 227.861 15.5856C227.663 14.8932 227.32 14.2513 226.854 13.7028C226.389 13.1544 225.812 12.7119 225.163 12.4051C224.514 12.0983 223.807 11.9343 223.089 11.9239C221.624 12.0313 220.253 12.6858 219.245 13.7583C218.237 14.8308 217.666 16.2434 217.645 17.7176H228.004Z" fill="#213A8F"/>
<path d="M244.034 25.1052C245.934 26.2647 248.111 26.8855 250.335 26.9015C253.914 26.9015 256.006 24.9787 256.006 22.2463C256.006 19.5138 254.569 18.2235 250.965 16.8067C246.529 15.2381 243.782 12.9105 243.782 9.06488C243.782 4.81445 247.31 1.65192 252.578 1.65192C254.666 1.58339 256.738 2.04458 258.602 2.99283L257.619 5.87705C256.03 5.02336 254.254 4.57995 252.452 4.58675C248.747 4.58675 247.411 6.81315 247.411 8.66006C247.411 11.1901 249.075 12.4804 252.83 13.9225C257.417 15.7188 259.762 17.9452 259.762 21.9427C259.762 25.9401 256.661 29.811 250.234 29.811C247.813 29.8367 245.425 29.2355 243.303 28.0653L244.034 25.1052Z" fill="#213A8F"/>
<path d="M281.967 19.4379C282.085 20.7794 281.919 22.1307 281.48 23.4034C281.041 24.676 280.34 25.8412 279.421 26.8229C278.503 27.8045 277.388 28.5804 276.15 29.0997C274.913 29.619 273.579 29.87 272.238 29.8363C270.942 29.8558 269.656 29.6014 268.463 29.0898C267.271 28.5781 266.199 27.8206 265.318 26.8664C264.436 25.9121 263.764 24.7824 263.345 23.5506C262.927 22.3189 262.77 21.0125 262.887 19.7162C262.77 18.3791 262.935 17.0322 263.371 15.7631C263.806 14.4941 264.503 13.3313 265.416 12.3505C266.329 11.3697 267.438 10.5928 268.67 10.0703C269.901 9.54777 271.229 9.2914 272.566 9.31785C273.867 9.29119 275.158 9.54022 276.357 10.0487C277.555 10.5571 278.633 11.3136 279.52 12.2687C280.407 13.2237 281.084 14.3559 281.505 15.5913C281.927 16.8266 282.085 18.1374 281.967 19.4379ZM266.466 19.6403C266.466 23.9414 268.987 27.2304 272.415 27.2304C275.842 27.2304 278.338 24.0173 278.338 19.6403C278.338 16.326 276.674 12.0503 272.49 12.0503C268.306 12.0503 266.466 15.9212 266.466 19.6403Z" fill="#213A8F"/>
<path d="M285.975 25.763C287.376 26.6439 288.986 27.133 290.638 27.1798C293.159 27.1798 294.444 25.8895 294.444 24.2703C294.444 22.6511 293.436 21.7403 290.815 20.6524C287.286 19.3873 285.648 17.4645 285.648 15.1116C285.683 14.2801 285.89 13.4649 286.254 12.7172C286.618 11.9694 287.132 11.3052 287.764 10.7661C288.396 10.227 289.132 9.82456 289.925 9.58407C290.719 9.34358 291.554 9.2702 292.377 9.36848C294.06 9.34749 295.719 9.76598 297.191 10.5829L296.284 13.1129C295.088 12.3688 293.709 11.9746 292.302 11.9744C290.21 11.9744 289.025 13.1888 289.025 14.6562C289.025 16.1236 290.21 17.0091 292.755 17.9705C296.133 19.2608 297.796 20.9813 297.796 23.8908C297.796 27.3316 295.125 29.7604 290.487 29.7604C288.571 29.793 286.679 29.3313 284.992 28.4195L285.975 25.763Z" fill="#213A8F"/>
<path d="M306.718 4.18188V9.79853H311.759V12.5056H306.718V23.0811C306.718 25.6111 307.398 26.9014 309.364 26.9014C310.061 26.9113 310.757 26.8261 311.431 26.6484L311.582 29.3303C310.57 29.6823 309.502 29.8452 308.432 29.811C307.724 29.8462 307.018 29.7315 306.358 29.4743C305.698 29.2171 305.099 28.8232 304.6 28.3183C303.539 26.8584 303.055 25.0558 303.239 23.2582V12.5562H300.215V9.84912H303.139V5.14328L306.718 4.18188Z" fill="#213A8F"/>
<path d="M316.725 20.2476C316.646 21.1549 316.764 22.0686 317.071 22.9254C317.379 23.7822 317.869 24.5614 318.507 25.209C319.145 25.8567 319.916 26.3571 320.766 26.6756C321.616 26.9941 322.525 27.123 323.429 27.0534C325.279 27.1042 327.117 26.7592 328.823 26.0414L329.428 28.5714C327.369 29.4263 325.154 29.8399 322.925 29.7858C321.621 29.8674 320.315 29.6653 319.096 29.1935C317.877 28.7216 316.774 27.9911 315.862 27.0518C314.95 26.1125 314.251 24.9866 313.813 23.7512C313.375 22.5157 313.207 21.1998 313.322 19.8934C313.322 13.9985 316.801 9.34326 322.497 9.34326C328.874 9.34326 330.563 14.9599 330.563 18.5525C330.561 19.1115 330.519 19.6696 330.436 20.2223L316.725 20.2476ZM327.135 17.7176C327.239 17.0048 327.19 16.278 326.992 15.5856C326.794 14.8932 326.45 14.2513 325.985 13.7028C325.52 13.1544 324.943 12.7119 324.294 12.4051C323.644 12.0983 322.937 11.9343 322.22 11.9239C320.754 12.0365 319.383 12.6918 318.372 13.7625C317.362 14.8333 316.783 16.2429 316.75 17.7176H327.135Z" fill="#213A8F"/>
<path d="M334.973 15.1116C334.973 13.0876 334.973 11.4178 334.797 9.79855H337.947L338.149 13.037C338.793 11.8961 339.733 10.9521 340.869 10.306C342.006 9.65985 343.296 9.33581 344.602 9.36846C347.324 9.36846 351.508 10.9877 351.508 17.6922V29.305H347.954V17.9958C347.954 14.8333 346.794 12.2021 343.442 12.2021C342.364 12.2183 341.32 12.5809 340.463 13.2366C339.606 13.8923 338.98 14.8066 338.678 15.8453C338.51 16.3856 338.425 16.9488 338.426 17.5151V29.305H334.898L334.973 15.1116Z" fill="#213A8F"/>
<path d="M361.312 4.2831C361.312 4.86687 361.081 5.42673 360.67 5.83952C360.259 6.25231 359.701 6.48422 359.119 6.48422C358.538 6.48422 357.98 6.25231 357.569 5.83952C357.157 5.42673 356.926 4.86687 356.926 4.2831C356.919 3.98883 356.972 3.69622 357.081 3.42296C357.19 3.14971 357.353 2.9015 357.561 2.69337C357.768 2.48523 358.015 2.32148 358.288 2.21204C358.56 2.1026 358.851 2.04977 359.144 2.05669C359.436 2.04555 359.727 2.0959 359.999 2.20453C360.27 2.31316 360.516 2.47764 360.72 2.68738C360.924 2.89713 361.082 3.14747 361.184 3.42231C361.286 3.69714 361.33 3.99038 361.312 4.2831ZM357.355 29.305V9.69734H360.909V29.305H357.355Z" fill="#213A8F"/>
<path d="M366.656 29.3049C366.656 27.964 366.807 25.9906 366.807 24.2448V0.538574H370.311V12.8598C370.993 11.7073 371.975 10.7637 373.153 10.1305C374.33 9.49743 375.657 9.1989 376.99 9.26714C381.83 9.26714 385.257 13.3152 385.207 19.2607C385.207 26.2689 380.821 29.735 376.461 29.735C375.134 29.81 373.814 29.505 372.654 28.8554C371.494 28.2059 370.541 27.2386 369.908 26.0665L369.731 29.3049H366.656ZM370.311 21.4365C370.331 22.8885 370.918 24.2746 371.945 25.2966C372.973 26.3186 374.359 26.8949 375.806 26.9014C379.511 26.9014 381.729 23.8653 381.729 19.3113C381.729 15.3645 379.712 12.0249 375.932 12.0249C374.676 12.0455 373.462 12.4839 372.482 13.2715C371.501 14.0591 370.808 15.1512 370.513 16.3765C370.398 16.8579 370.33 17.3493 370.311 17.8439V21.4365Z" fill="#213A8F"/>
<path d="M393.726 4.28303C393.668 4.82936 393.41 5.33476 393.003 5.70201C392.596 6.06927 392.068 6.27244 391.52 6.27244C390.973 6.27244 390.445 6.06927 390.038 5.70201C389.631 5.33476 389.373 4.82936 389.315 4.28303C389.308 3.98876 389.361 3.69614 389.47 3.42289C389.579 3.14964 389.742 2.90143 389.949 2.6933C390.157 2.48516 390.404 2.3214 390.676 2.21197C390.948 2.10253 391.24 2.0497 391.533 2.05662C391.826 2.04577 392.118 2.09611 392.391 2.2045C392.663 2.31288 392.911 2.47692 393.117 2.68623C393.323 2.89554 393.484 3.14557 393.588 3.42044C393.693 3.69531 393.74 3.98904 393.726 4.28303ZM389.769 29.3049V9.69727H393.323V29.3049H389.769Z" fill="#213A8F"/>
<path d="M399.221 0.639893H402.775V29.305H399.221V0.639893Z" fill="#213A8F"/>
<path d="M412.68 4.2831C412.695 4.58051 412.647 4.87775 412.539 5.15507C412.431 5.4324 412.265 5.68347 412.053 5.89164C411.841 6.0998 411.587 6.2603 411.308 6.36246C411.03 6.46463 410.733 6.50614 410.437 6.48422C410.15 6.48783 409.866 6.43298 409.601 6.32299C409.336 6.213 409.096 6.05016 408.896 5.84435C408.695 5.63853 408.539 5.39404 408.435 5.12567C408.332 4.85731 408.284 4.57065 408.294 4.2831C408.287 3.98883 408.34 3.69622 408.449 3.42296C408.558 3.14971 408.721 2.9015 408.929 2.69337C409.136 2.48523 409.383 2.32148 409.655 2.21204C409.928 2.1026 410.219 2.04977 410.512 2.05669C410.804 2.04555 411.095 2.0959 411.367 2.20453C411.638 2.31316 411.884 2.47764 412.088 2.68738C412.292 2.89713 412.45 3.14747 412.552 3.42231C412.654 3.69714 412.698 3.99038 412.68 4.2831ZM408.748 29.305V9.69734H412.277V29.305H408.748Z" fill="#213A8F"/>
<path d="M435.038 0.639777V24.2448C435.038 25.9906 435.038 27.964 435.214 29.3049H432.013L431.862 25.8894C431.224 27.0926 430.262 28.0914 429.085 28.7715C427.909 29.4516 426.565 29.7854 425.208 29.735C420.469 29.735 416.84 25.7375 416.84 19.792C416.84 13.2646 420.847 9.26714 425.611 9.26714C426.766 9.1979 427.918 9.43784 428.95 9.9624C429.982 10.487 430.856 11.2773 431.484 12.2526V0.538574L435.038 0.639777ZM431.484 17.768C431.495 17.2661 431.444 16.7647 431.333 16.2753C431.077 15.1187 430.441 14.0824 429.526 13.334C428.611 12.5856 427.472 12.1689 426.292 12.1514C422.612 12.1514 420.444 15.3898 420.444 19.7414C420.444 24.093 422.36 27.0026 426.191 27.0026C427.413 26.9957 428.595 26.5708 429.544 25.798C430.493 25.0252 431.15 23.9508 431.408 22.7521C431.525 22.2464 431.576 21.7277 431.56 21.2088L431.484 17.768Z" fill="#213A8F"/>
<path d="M451.849 29.3049L451.572 26.7748H451.446C450.754 27.7033 449.85 28.452 448.811 28.9582C447.772 29.4644 446.627 29.7134 445.472 29.6844C444.704 29.7441 443.933 29.6428 443.206 29.3867C442.48 29.1307 441.814 28.7256 441.252 28.1972C440.69 27.6689 440.244 27.0288 439.942 26.3178C439.64 25.6069 439.489 24.8406 439.498 24.0677C439.498 19.3366 443.708 16.7307 451.244 16.7813V16.6548C451.325 16.0475 451.266 15.4298 451.073 14.8486C450.88 14.2674 450.557 13.7382 450.129 13.3014C449.701 12.8645 449.18 12.5315 448.604 12.3279C448.028 12.1242 447.414 12.0551 446.808 12.126C445.028 12.1399 443.286 12.6383 441.767 13.5682L440.96 11.2152C442.904 10.0589 445.128 9.46356 447.388 9.49482C453.361 9.49482 454.798 13.5682 454.798 17.4897V24.8267C454.781 26.4016 454.891 27.9753 455.125 29.5326L451.849 29.3049ZM451.32 19.1848C447.463 19.1848 443.052 19.8173 443.052 23.6123C443.019 24.064 443.082 24.5176 443.239 24.9424C443.395 25.3673 443.64 25.7535 443.958 26.0749C444.276 26.3964 444.659 26.6455 445.081 26.8056C445.503 26.9656 445.954 27.0328 446.405 27.0025C447.434 27.0327 448.446 26.7325 449.294 26.1455C450.141 25.5585 450.78 24.7154 451.118 23.7388C451.244 23.3722 451.312 22.988 451.32 22.6003V19.1848Z" fill="#213A8F"/>
<path d="M477.255 0.639777V24.2448C477.255 25.9906 477.255 27.964 477.406 29.3049H474.23L474.079 25.8894C473.446 27.0966 472.485 28.0987 471.307 28.7794C470.129 29.4602 468.783 29.7915 467.425 29.735C462.712 29.735 459.082 25.7375 459.082 19.792C459.082 13.2646 463.09 9.26715 467.828 9.26715C468.987 9.19331 470.144 9.43103 471.181 9.9558C472.218 10.4806 473.096 11.2734 473.726 12.2526V0.538574L477.255 0.639777ZM473.701 17.768C473.712 17.2661 473.661 16.7647 473.55 16.2753C473.294 15.1187 472.658 14.0824 471.743 13.334C470.828 12.5856 469.689 12.1689 468.509 12.1514C464.829 12.1514 462.636 15.3898 462.636 19.7414C462.636 24.093 464.577 27.0026 468.408 27.0026C469.63 26.9957 470.812 26.5708 471.761 25.798C472.71 25.0252 473.367 23.9508 473.625 22.7521C473.742 22.2464 473.793 21.7277 473.777 21.2088L473.701 17.768Z" fill="#213A8F"/>
<path d="M42.0175 65.9902C42.0175 76.7174 35.4138 81.651 26.1384 87.0146C14.6197 93.8456 12.4017 97.1347 12.2252 101.891H43.5298V110.67H0.0765128C0.0422041 110.047 0.0422041 109.422 0.0765128 108.798C0.0765128 97.16 3.10111 90.253 17.5687 81.8281C26.4913 76.768 31.1289 73.3272 31.1289 66.4203C31.1289 61.3602 27.6507 57.9194 21.9291 57.9194C14.9726 57.9194 11.8472 61.765 11.4943 68.5708H0.883012C1.23588 55.9207 9.25106 48.9631 21.9291 48.9631C34.0779 48.9631 42.0175 55.6677 42.0175 65.9902Z" fill="#00A7E2"/>
<path d="M96.6354 80.4871C96.6354 100.727 88.5194 112.011 73.7745 112.011C59.0297 112.011 50.8633 100.727 50.8633 80.4871C50.8633 60.247 58.9793 48.9631 73.7745 48.9631C88.5698 48.9631 96.6354 60.247 96.6354 80.4871ZM61.8274 80.4871C61.8274 95.0853 66.0114 103.257 73.7745 103.257C81.5377 103.257 85.646 95.1865 85.646 80.4871C85.646 65.7877 81.462 58.0206 73.7745 58.0206C66.087 58.0206 61.8274 65.9901 61.8274 80.4871Z" fill="#00A7E2"/>
<path d="M145.71 65.9902C145.71 76.7174 139.106 81.651 129.831 87.0146C118.312 93.8456 116.094 97.1347 115.892 101.891H147.121V110.67H103.769C103.723 110.047 103.723 109.421 103.769 108.798C103.769 97.16 106.819 90.253 121.261 81.8281C130.184 76.768 134.821 73.3272 134.821 66.4203C134.821 61.3602 131.343 57.9194 125.647 57.9194C118.69 57.9194 115.565 61.765 115.212 68.5708H104.576C104.928 55.9207 112.969 48.9631 125.647 48.9631C137.77 48.9631 145.71 55.6677 145.71 65.9902Z" fill="#00A7E2"/>
<path d="M197.808 65.712C197.808 72.6949 194.506 76.8947 187.373 79.5006V79.6777C195.137 82.2077 198.791 86.8377 198.791 94.6301C198.791 105.13 190.221 112.011 177.392 112.011C163.277 112.011 155.338 104.674 155.338 91.7712H166.05C166.05 99.3613 169.881 103.232 177.392 103.232C183.794 103.232 188.079 99.6395 188.079 94.2759C188.079 88.0015 183.618 84.763 174.872 84.763H172.754V76.0851H174.872C182.559 76.0851 187.298 72.4166 187.298 66.7746C187.298 61.1327 183.189 57.8943 176.939 57.8943C170.688 57.8943 166.579 61.4869 166.579 68.824H155.968C155.968 56.3763 164.008 49.0392 177.291 49.0392C189.97 48.9633 197.808 55.592 197.808 65.712Z" fill="#00A7E2"/>
<path d="M226.541 118.64L253.132 43.9539H261.525L234.934 118.64H226.541Z" fill="#00A7E2"/>
<path d="M332.63 65.9902C332.63 76.7174 326.026 81.651 316.751 87.0146C305.257 93.8456 303.014 97.1347 302.838 101.891H334.067V110.67H290.714C290.668 110.047 290.668 109.421 290.714 108.798C290.714 97.16 293.739 90.253 308.206 81.8281C317.129 76.768 321.767 73.3272 321.767 66.4203C321.767 61.3602 318.288 57.9194 312.567 57.9194C305.61 57.9194 302.485 61.765 302.132 68.5708H291.521C291.874 55.9207 299.914 48.9631 312.567 48.9631C324.69 48.9631 332.63 55.6677 332.63 65.9902Z" fill="#00A7E2"/>
<path d="M387.249 80.4871C387.249 100.727 379.133 112.011 364.413 112.011C349.693 112.011 341.477 100.727 341.477 80.4871C341.477 60.247 349.593 48.9631 364.413 48.9631C379.234 48.9631 387.249 60.247 387.249 80.4871ZM352.441 80.4871C352.441 95.0853 356.65 103.257 364.413 103.257C372.176 103.257 376.285 95.1865 376.285 80.4871C376.285 65.7877 372.075 58.0206 364.413 58.0206C356.751 58.0206 352.441 65.9901 352.441 80.4871Z" fill="#00A7E2"/>
<path d="M436.322 65.9902C436.322 76.7174 429.718 81.651 420.443 87.0146C408.924 93.8456 406.706 97.1347 406.53 101.891H437.759V110.67H394.381C394.347 110.047 394.347 109.422 394.381 108.798C394.381 97.16 397.406 90.253 411.873 81.8281C420.796 76.768 425.434 73.3272 425.434 66.4203C425.434 61.3602 421.955 57.9194 416.234 57.9194C409.277 57.9194 406.152 61.765 405.799 68.5708H395.188C395.541 55.9207 403.556 48.9631 416.234 48.9631C428.383 48.9631 436.322 55.6677 436.322 65.9902Z" fill="#00A7E2"/>
<path d="M482.825 96.1734V110.67H472.289V96.1734H443.631V87.0147L468.71 50.3042H482.825V87.6472H491.999V96.1734H482.825ZM472.541 87.6472V79.9054C472.541 72.8466 472.743 65.7626 472.995 58.6785H472.818C468.71 65.4084 464.349 71.9358 459.888 78.5645L453.536 87.6978L472.541 87.6472Z" fill="#00A7E2"/>
</g>
<defs>
<clipPath id="clip0_2039_169">
<rect width="492" height="118" fill="white" transform="translate(0 0.639893)"/>
</clipPath>
</defs>
</svg>
