<svg width="4920" height="3106" viewBox="0 0 4920 3106" fill="none" xmlns="http://www.w3.org/2000/svg">
<mask id="mask0_2034_31" style="mask-type:luminance" maskUnits="userSpaceOnUse" x="5" y="10" width="4915" height="3096">
<path d="M1487.56 2940.04C1344.06 2995.07 1198.02 3051.07 1050.42 3106H4920V2429.99C4708.79 2337.29 4467.39 2284.28 4211.09 2272.79C4162.22 2270.59 4113.43 2269.51 4064.73 2269.55C3161.26 2269.55 2283.44 2634.69 1487.56 2940.04ZM5 10.8083V1362.97C16.0574 1399.02 29.0405 1436.79 44.2599 1476.99C104.019 1634.3 216.954 1783.45 387.784 1871.4C931.707 2151.33 1583.84 1741.53 2028.44 1503.62C2674.92 1157.92 3329.42 819.667 4024.23 541.66C4303.77 429.718 4606.36 293.271 4919.75 189.075V10.8083H5Z" fill="white"/>
</mask>
<g mask="url(#mask0_2034_31)">
<path d="M3275.88 2029.01C3234.25 2378.52 3006.8 2710.7 2791.32 2978.3C2467.13 3380.64 1602.9 4086.04 932.733 3975.26C262.566 3864.48 -328.579 2918.58 -506.175 2433.43C-624.151 2110.71 -732.502 1722.91 -659.559 1378.78C-624.961 1124.65 -470.261 889.619 -241.199 760.049C54.0192 592.893 436.718 649.625 733.81 820.832C922.754 929.787 1050.61 1078.45 1156.27 1245.71C1212.96 1325.59 1266.6 1407.8 1318.78 1491.68L1335.74 1518.98L1338.07 1522.78L1341.47 1519.95L1366.34 1499.69C1442.68 1436.98 1519.98 1376.4 1599.35 1319.01C1753.24 1194.7 1922.08 1095.02 2136.3 1052.67C2472.7 986.063 2853.22 1055.71 3079.04 1308.72C3254.2 1505.11 3325.02 1777.32 3276.14 2029.06" fill="#00A7E2"/>
<path d="M402.322 38.6465C489.601 10.7366 604.943 56.7803 679.608 99.4302C884.204 216.54 1056.74 412.973 1126.49 640.456C1162.35 751.488 1162.76 826.404 1162.76 826.404C1124.99 770.745 1080.78 719.739 1031.05 674.445C905.578 559.468 756.957 472.665 595.166 419.862C485.599 384.405 287.69 365.055 278.927 213.45C274.57 139.75 332.317 61.0352 402.322 38.6465Z" fill="#00A7E2"/>
</g>
<mask id="mask1_2034_31" style="mask-type:luminance" maskUnits="userSpaceOnUse" x="0" y="0" width="4920" height="3101">
<path d="M4919.88 0.465332H0V3101H4919.88V0.465332Z" fill="white"/>
</mask>
<g mask="url(#mask1_2034_31)">
<path d="M4207.74 2264.25C4464.05 2275.75 4705.51 2328.79 4916.65 2421.56V178.937C4603.07 283.2 4300.73 419.735 4021.13 531.75C3326.32 810.19 2671.83 1148.66 2025.1 1494.59C1580.26 1732.7 928.131 2142.71 384.211 1862.6C213.444 1774.6 100.448 1625.35 40.6886 1467.94C23.1708 1421.63 8.63483 1378.62 -3.47852 1337.74V3099.62H1042.68C1191.77 3043.89 1339.3 2987.56 1484.23 2931.88C2323.28 2609.92 3252.77 2221.54 4207.74 2264.25Z" fill="#213A8F"/>
<path d="M4061.38 2261.01C3157.92 2261.01 2280.1 2626.38 1484.22 2931.88C1339.3 2987.61 1191.77 3044.15 1042.68 3099.62C1191.77 3043.89 1339.3 2987.56 1484.22 2931.88C2242.95 2640.67 3076.1 2295.05 3934.97 2263.13C3825.33 2525.67 3611.95 2771.53 3407.57 2978.64C3370.3 3016.53 3326.82 3057.12 3278.43 3099.42H4916.65V2421.56C4705.44 2328.79 4464.04 2275.75 4207.74 2264.25C4158.87 2262.05 4110.09 2260.97 4061.38 2261.01Z" fill="#344194"/>
<path d="M3934.97 2263.34C3076.1 2295.05 2242.95 2640.67 1484.22 2932.08C1339.3 2987.81 1191.77 3044.35 1042.68 3099.82H3278.43C3326.88 3057.52 3370.12 3016.94 3407.57 2979.04C3612.07 2771.94 3825.33 2526.07 3934.97 2263.54" fill="#243F92"/>
</g>
</svg>
