<svg width="700" height="290" viewBox="0 0 700 290" fill="none" xmlns="http://www.w3.org/2000/svg">
<path d="M364.715 46.6318H360.712L372.29 15.059H376.231L387.808 46.6318H383.806L374.383 20.0539H374.137L364.715 46.6318ZM366.193 34.2987H382.328V37.6903H366.193V34.2987Z" fill="white"/>
<path d="M401.834 47.1252C399.617 47.1252 397.708 46.601 396.107 45.5527C394.506 44.5044 393.274 43.0604 392.412 41.2207C391.55 39.381 391.119 37.2792 391.119 34.9154C391.119 32.5104 391.56 30.3881 392.443 28.5484C393.336 26.6984 394.577 25.2544 396.168 24.2164C397.77 23.1681 399.638 22.6439 401.772 22.6439C403.435 22.6439 404.934 22.9522 406.268 23.5689C407.602 24.1855 408.695 25.0489 409.547 26.1588C410.399 27.2688 410.928 28.5638 411.133 30.0438H407.5C407.223 28.9646 406.607 28.0088 405.652 27.1763C404.708 26.3336 403.435 25.9122 401.834 25.9122C400.418 25.9122 399.176 26.2822 398.108 27.0222C397.051 27.7519 396.225 28.7848 395.63 30.1209C395.044 31.4467 394.752 33.0037 394.752 34.792C394.752 36.6214 395.039 38.2145 395.614 39.5711C396.199 40.9278 397.02 41.9812 398.077 42.7315C399.145 43.4818 400.397 43.8569 401.834 43.8569C402.778 43.8569 403.635 43.6924 404.405 43.3636C405.175 43.0347 405.827 42.5619 406.36 41.9452C406.894 41.3286 407.274 40.5886 407.5 39.7253H411.133C410.928 41.123 410.42 42.382 409.609 43.5023C408.808 44.6123 407.746 45.4962 406.422 46.1539C405.108 46.8014 403.579 47.1252 401.834 47.1252Z" fill="white"/>
<path d="M426.052 47.1252C423.917 47.1252 422.044 46.6164 420.432 45.5989C418.831 44.5815 417.579 43.158 416.676 41.3286C415.783 39.4992 415.336 37.3614 415.336 34.9154C415.336 32.4487 415.783 30.2956 416.676 28.4559C417.579 26.6162 418.831 25.1876 420.432 24.1701C422.044 23.1526 423.917 22.6439 426.052 22.6439C428.186 22.6439 430.054 23.1526 431.656 24.1701C433.267 25.1876 434.519 26.6162 435.412 28.4559C436.315 30.2956 436.767 32.4487 436.767 34.9154C436.767 37.3614 436.315 39.4992 435.412 41.3286C434.519 43.158 433.267 44.5815 431.656 45.5989C430.054 46.6164 428.186 47.1252 426.052 47.1252ZM426.052 43.8569C427.673 43.8569 429.008 43.4406 430.054 42.6082C431.101 41.7757 431.876 40.6811 432.379 39.3245C432.882 37.9678 433.134 36.4981 433.134 34.9154C433.134 33.3326 432.882 31.8578 432.379 30.4909C431.876 29.1239 431.101 28.0191 430.054 27.1763C429.008 26.3336 427.673 25.9122 426.052 25.9122C424.43 25.9122 423.096 26.3336 422.049 27.1763C421.002 28.0191 420.227 29.1239 419.724 30.4909C419.221 31.8578 418.97 33.3326 418.97 34.9154C418.97 36.4981 419.221 37.9678 419.724 39.3245C420.227 40.6811 421.002 41.7757 422.049 42.6082C423.096 43.4406 424.43 43.8569 426.052 43.8569Z" fill="white"/>
<path d="M442.313 46.6318V22.9522H445.824V26.5288H446.07C446.501 25.3572 447.281 24.4065 448.41 23.6768C449.539 22.9471 450.812 22.5822 452.228 22.5822C452.495 22.5822 452.829 22.5874 453.229 22.5976C453.629 22.6079 453.932 22.6233 454.137 22.6439V26.3438C454.014 26.313 453.732 26.2668 453.29 26.2051C452.859 26.1331 452.403 26.0972 451.92 26.0972C450.771 26.0972 449.744 26.3387 448.841 26.8217C447.948 27.2945 447.24 27.9523 446.717 28.795C446.203 29.6275 445.947 30.5782 445.947 31.6471V46.6318H442.313Z" fill="white"/>
<path d="M466.654 47.1252C464.683 47.1252 462.944 46.6267 461.435 45.6298C459.926 44.6226 458.746 43.2043 457.894 41.3748C457.042 39.5351 456.616 37.3614 456.616 34.8537C456.616 32.3665 457.042 30.2082 457.894 28.3788C458.746 26.5494 459.931 25.1362 461.45 24.1393C462.969 23.1424 464.724 22.6439 466.716 22.6439C468.255 22.6439 469.471 22.9008 470.364 23.4147C471.268 23.9183 471.955 24.4939 472.427 25.1414C472.91 25.7786 473.284 26.3027 473.551 26.7138H473.859V15.059H477.493V46.6318H473.982V42.9936H473.551C473.284 43.4252 472.905 43.9699 472.412 44.6277C471.919 45.2752 471.216 45.8559 470.303 46.3698C469.389 46.8734 468.173 47.1252 466.654 47.1252ZM467.147 43.8569C468.604 43.8569 469.836 43.4766 470.842 42.7161C471.848 41.9452 472.612 40.8815 473.136 39.5249C473.659 38.158 473.921 36.5803 473.921 34.792C473.921 33.0243 473.664 31.4775 473.151 30.1517C472.638 28.8156 471.878 27.7776 470.872 27.0376C469.867 26.2873 468.625 25.9122 467.147 25.9122C465.607 25.9122 464.324 26.3079 463.298 27.0992C462.282 27.8803 461.517 28.9441 461.004 30.2904C460.501 31.6265 460.249 33.1271 460.249 34.792C460.249 36.4776 460.506 38.0089 461.019 39.3861C461.543 40.753 462.312 41.8425 463.329 42.6544C464.355 43.4561 465.628 43.8569 467.147 43.8569Z" fill="white"/>
<path d="M494.567 47.1252C492.288 47.1252 490.322 46.6216 488.67 45.6144C487.028 44.5969 485.76 43.1786 484.867 41.3594C483.985 39.53 483.543 37.4025 483.543 34.977C483.543 32.5515 483.985 30.4138 484.867 28.5638C485.76 26.7036 487.002 25.2544 488.593 24.2164C490.194 23.1681 492.062 22.6439 494.197 22.6439C495.429 22.6439 496.645 22.8494 497.846 23.2606C499.047 23.6717 500.14 24.3397 501.125 25.2647C502.111 26.1794 502.896 27.3922 503.481 28.903C504.066 30.4138 504.358 32.274 504.358 34.4837V36.0253H486.13V32.8804H500.663C500.663 31.5443 500.396 30.3521 499.863 29.3038C499.339 28.2555 498.59 27.4281 497.615 26.8217C496.65 26.2154 495.511 25.9122 494.197 25.9122C492.75 25.9122 491.498 26.2719 490.44 26.9913C489.394 27.7005 488.588 28.6255 488.023 29.7663C487.459 30.9071 487.177 32.1301 487.177 33.4354V35.532C487.177 37.3203 487.485 38.8363 488.1 40.0799C488.726 41.3132 489.594 42.2536 490.702 42.9011C491.811 43.5383 493.099 43.8569 494.567 43.8569C495.521 43.8569 496.383 43.7233 497.153 43.4561C497.933 43.1786 498.605 42.7675 499.17 42.2227C499.734 41.6678 500.171 40.9792 500.479 40.1569L503.989 41.1436C503.619 42.3358 502.998 43.3841 502.126 44.2885C501.253 45.1827 500.176 45.8816 498.893 46.3852C497.61 46.8785 496.168 47.1252 494.567 47.1252Z" fill="white"/>
<path d="M531.686 47.1252C529.469 47.1252 527.56 46.601 525.959 45.5527C524.357 44.5044 523.126 43.0604 522.264 41.2207C521.401 39.381 520.97 37.2792 520.97 34.9154C520.97 32.5104 521.412 30.3881 522.294 28.5484C523.187 26.6984 524.429 25.2544 526.02 24.2164C527.621 23.1681 529.489 22.6439 531.624 22.6439C533.287 22.6439 534.785 22.9522 536.12 23.5689C537.454 24.1855 538.547 25.0489 539.399 26.1588C540.251 27.2688 540.78 28.5638 540.985 30.0438H537.351C537.074 28.9646 536.458 28.0088 535.504 27.1763C534.56 26.3336 533.287 25.9122 531.686 25.9122C530.269 25.9122 529.027 26.2822 527.96 27.0222C526.903 27.7519 526.077 28.7848 525.481 30.1209C524.896 31.4467 524.604 33.0037 524.604 34.792C524.604 36.6214 524.891 38.2145 525.466 39.5711C526.051 40.9278 526.872 41.9812 527.929 42.7315C528.997 43.4818 530.249 43.8569 531.686 43.8569C532.63 43.8569 533.487 43.6924 534.257 43.3636C535.027 43.0347 535.678 42.5619 536.212 41.9452C536.746 41.3286 537.126 40.5886 537.351 39.7253H540.985C540.78 41.123 540.271 42.382 539.461 43.5023C538.66 44.6123 537.598 45.4962 536.274 46.1539C534.96 46.8014 533.431 47.1252 531.686 47.1252Z" fill="white"/>
<path d="M555.903 47.1252C553.768 47.1252 551.895 46.6164 550.284 45.5989C548.683 44.5815 547.43 43.158 546.527 41.3286C545.634 39.4992 545.188 37.3614 545.188 34.9154C545.188 32.4487 545.634 30.2956 546.527 28.4559C547.43 26.6162 548.683 25.1876 550.284 24.1701C551.895 23.1526 553.768 22.6439 555.903 22.6439C558.038 22.6439 559.906 23.1526 561.507 24.1701C563.119 25.1876 564.371 26.6162 565.264 28.4559C566.167 30.2956 566.619 32.4487 566.619 34.9154C566.619 37.3614 566.167 39.4992 565.264 41.3286C564.371 43.158 563.119 44.5815 561.507 45.5989C559.906 46.6164 558.038 47.1252 555.903 47.1252ZM555.903 43.8569C557.525 43.8569 558.859 43.4406 559.906 42.6082C560.953 41.7757 561.728 40.6811 562.231 39.3245C562.734 37.9678 562.985 36.4981 562.985 34.9154C562.985 33.3326 562.734 31.8578 562.231 30.4909C561.728 29.1239 560.953 28.0191 559.906 27.1763C558.859 26.3336 557.525 25.9122 555.903 25.9122C554.282 25.9122 552.947 26.3336 551.9 27.1763C550.853 28.0191 550.079 29.1239 549.576 30.4909C549.073 31.8578 548.821 33.3326 548.821 34.9154C548.821 36.4981 549.073 37.9678 549.576 39.3245C550.079 40.6811 550.853 41.7757 551.9 42.6082C552.947 43.4406 554.282 43.8569 555.903 43.8569Z" fill="white"/>
<path d="M575.798 32.3871V46.6318H572.165V22.9522H575.675V26.6522H575.983C576.537 25.4497 577.379 24.4836 578.508 23.7539C579.637 23.0139 581.095 22.6439 582.881 22.6439C584.482 22.6439 585.883 22.9728 587.084 23.6305C588.284 24.278 589.218 25.2647 589.886 26.5905C590.553 27.906 590.886 29.571 590.886 31.5854V46.6318H587.253V31.8321C587.253 29.9718 586.771 28.5227 585.806 27.4846C584.841 26.4363 583.517 25.9122 581.834 25.9122C580.674 25.9122 579.637 26.164 578.724 26.6676C577.82 27.1712 577.107 27.906 576.584 28.8721C576.06 29.8382 575.798 31.0099 575.798 32.3871Z" fill="white"/>
<path d="M600.174 46.8785C599.414 46.8785 598.763 46.6061 598.219 46.0614C597.675 45.5167 597.403 44.8641 597.403 44.1035C597.403 43.343 597.675 42.6904 598.219 42.1457C598.763 41.6009 599.414 41.3286 600.174 41.3286C600.933 41.3286 601.585 41.6009 602.129 42.1457C602.673 42.6904 602.945 43.343 602.945 44.1035C602.945 44.6071 602.817 45.0696 602.56 45.491C602.314 45.9124 601.98 46.2516 601.559 46.5085C601.149 46.7552 600.687 46.8785 600.174 46.8785ZM600.174 29.3038C599.414 29.3038 598.763 29.0314 598.219 28.4867C597.675 27.942 597.403 27.2894 597.403 26.5288C597.403 25.7683 597.675 25.1157 598.219 24.5709C598.763 24.0262 599.414 23.7539 600.174 23.7539C600.933 23.7539 601.585 24.0262 602.129 24.5709C602.673 25.1157 602.945 25.7683 602.945 26.5288C602.945 27.0324 602.817 27.4949 602.56 27.9163C602.314 28.3377 601.98 28.6769 601.559 28.9338C601.149 29.1805 600.687 29.3038 600.174 29.3038Z" fill="white"/>
<path d="M367.24 57.3219V88.8948H363.422V57.3219H367.24Z" fill="white"/>
<path d="M378.036 74.65V88.8948H374.403V65.2152H377.913V68.9151H378.221C378.775 67.7126 379.617 66.7465 380.746 66.0168C381.875 65.2768 383.332 64.9068 385.118 64.9068C386.719 64.9068 388.12 65.2357 389.321 65.8935C390.522 66.541 391.456 67.5276 392.123 68.8534C392.79 70.169 393.124 71.8339 393.124 73.8483V88.8948H389.49V74.095C389.49 72.2348 389.008 70.7856 388.043 69.7476C387.078 68.6993 385.754 68.1751 384.071 68.1751C382.911 68.1751 381.875 68.4269 380.961 68.9305C380.058 69.4341 379.345 70.169 378.821 71.1351C378.298 72.1011 378.036 73.2728 378.036 74.65Z" fill="white"/>
<path d="M408.693 89.3881C406.722 89.3881 404.982 88.8896 403.474 87.8927C401.965 86.8855 400.785 85.4672 399.933 83.6378C399.081 81.7981 398.655 79.6244 398.655 77.1166C398.655 74.6294 399.081 72.4711 399.933 70.6417C400.785 68.8123 401.97 67.3991 403.489 66.4022C405.008 65.4053 406.763 64.9068 408.754 64.9068C410.294 64.9068 411.51 65.1638 412.403 65.6776C413.306 66.1812 413.994 66.7568 414.466 67.4043C414.949 68.0415 415.323 68.5657 415.59 68.9768H415.898V57.3219H419.531V88.8948H416.021V85.2565H415.59C415.323 85.6881 414.943 86.2329 414.451 86.8906C413.958 87.5381 413.255 88.1188 412.342 88.6327C411.428 89.1363 410.212 89.3881 408.693 89.3881ZM409.185 86.1198C410.643 86.1198 411.875 85.7395 412.88 84.979C413.886 84.2082 414.651 83.1444 415.174 81.7878C415.698 80.4209 415.96 78.8433 415.96 77.055C415.96 75.2872 415.703 73.7404 415.19 72.4146C414.677 71.0785 413.917 70.0405 412.911 69.3005C411.905 68.5502 410.663 68.1751 409.185 68.1751C407.646 68.1751 406.363 68.5708 405.337 69.3622C404.32 70.1433 403.556 71.207 403.043 72.5534C402.54 73.8895 402.288 75.39 402.288 77.055C402.288 78.7405 402.545 80.2718 403.058 81.649C403.581 83.016 404.351 84.1054 405.367 84.9173C406.394 85.719 407.666 86.1198 409.185 86.1198Z" fill="white"/>
<path d="M426.69 88.8948V65.2152H430.324V88.8948H426.69ZM428.538 61.2685C427.83 61.2685 427.219 61.027 426.706 60.544C426.203 60.0609 425.951 59.4802 425.951 58.8019C425.951 58.1236 426.203 57.5429 426.706 57.0599C427.219 56.5768 427.83 56.3353 428.538 56.3353C429.246 56.3353 429.852 56.5768 430.355 57.0599C430.868 57.5429 431.124 58.1236 431.124 58.8019C431.124 59.4802 430.868 60.0609 430.355 60.544C429.852 61.027 429.246 61.2685 428.538 61.2685Z" fill="white"/>
<path d="M446.586 89.3881C444.369 89.3881 442.46 88.8639 440.858 87.8156C439.257 86.7673 438.026 85.3233 437.163 83.4836C436.301 81.6439 435.87 79.5421 435.87 77.1783C435.87 74.7733 436.312 72.651 437.194 70.8113C438.087 68.9613 439.329 67.5173 440.92 66.4793C442.521 65.431 444.389 64.9068 446.524 64.9068C448.187 64.9068 449.685 65.2152 451.02 65.8318C452.354 66.4485 453.447 67.3118 454.299 68.4218C455.151 69.5317 455.679 70.8267 455.885 72.3067H452.251C451.974 71.2276 451.358 70.2717 450.404 69.4392C449.46 68.5965 448.187 68.1751 446.586 68.1751C445.169 68.1751 443.927 68.5451 442.86 69.2851C441.803 70.0148 440.976 71.0477 440.381 72.3838C439.796 73.7096 439.504 75.2667 439.504 77.055C439.504 78.8844 439.791 80.4774 440.366 81.834C440.951 83.1907 441.772 84.2441 442.829 84.9944C443.897 85.7447 445.149 86.1198 446.586 86.1198C447.53 86.1198 448.387 85.9554 449.157 85.6265C449.927 85.2976 450.578 84.8248 451.112 84.2082C451.646 83.5915 452.025 82.8515 452.251 81.9882H455.885C455.679 83.386 455.171 84.645 454.36 85.7652C453.56 86.8752 452.498 87.7591 451.174 88.4169C449.86 89.0643 448.33 89.3881 446.586 89.3881Z" fill="white"/>
<path d="M468.155 89.4498C466.657 89.4498 465.297 89.1671 464.075 88.6019C462.854 88.0263 461.884 87.199 461.165 86.1198C460.447 85.0304 460.088 83.7148 460.088 82.1732C460.088 80.8166 460.355 79.7169 460.888 78.8741C461.422 78.0211 462.135 77.353 463.028 76.87C463.921 76.3869 464.907 76.0272 465.984 75.7908C467.072 75.5442 468.165 75.3489 469.264 75.205C470.701 75.02 471.865 74.8812 472.758 74.7887C473.662 74.686 474.319 74.5164 474.729 74.28C475.15 74.0436 475.36 73.6325 475.36 73.0467V72.9234C475.36 71.4023 474.945 70.2203 474.113 69.3776C473.292 68.5348 472.045 68.1134 470.372 68.1134C468.637 68.1134 467.278 68.4937 466.292 69.2543C465.307 70.0148 464.614 70.8267 464.214 71.69L460.765 70.4567C461.381 69.0179 462.202 67.8976 463.229 67.096C464.265 66.284 465.394 65.7188 466.616 65.4001C467.847 65.0713 469.058 64.9068 470.249 64.9068C471.008 64.9068 471.881 64.9993 472.866 65.1843C473.862 65.359 474.821 65.7239 475.745 66.2789C476.679 66.8339 477.454 67.6715 478.07 68.7918C478.686 69.912 478.994 71.4125 478.994 73.2934V88.8948H475.36V85.6882H475.176C474.929 86.202 474.519 86.7519 473.944 87.3377C473.369 87.9235 472.605 88.422 471.65 88.8331C470.695 89.2442 469.53 89.4498 468.155 89.4498ZM468.709 86.1815C470.146 86.1815 471.357 85.8988 472.343 85.3336C473.338 84.7683 474.088 84.0386 474.591 83.1444C475.104 82.2503 475.36 81.3099 475.36 80.3232V76.9933C475.206 77.1783 474.868 77.3479 474.344 77.502C473.831 77.6459 473.236 77.7744 472.558 77.8874C471.891 77.9902 471.239 78.0827 470.603 78.1649C469.977 78.2369 469.469 78.2985 469.079 78.3499C468.135 78.4733 467.252 78.6737 466.431 78.9512C465.62 79.2184 464.963 79.6244 464.46 80.1691C463.967 80.7035 463.721 81.4332 463.721 82.3582C463.721 83.6224 464.188 84.5782 465.122 85.2257C466.066 85.8629 467.262 86.1815 468.709 86.1815Z" fill="white"/>
<path d="M485.625 88.8948V65.2152H489.136V68.7918H489.382C489.813 67.6201 490.593 66.6694 491.722 65.9397C492.851 65.21 494.124 64.8452 495.54 64.8452C495.807 64.8452 496.141 64.8503 496.541 64.8606C496.941 64.8709 497.244 64.8863 497.449 64.9068V68.6068C497.326 68.5759 497.044 68.5297 496.603 68.468C496.172 68.3961 495.715 68.3601 495.232 68.3601C494.083 68.3601 493.057 68.6016 492.153 69.0847C491.26 69.5574 490.552 70.2152 490.029 71.058C489.515 71.8905 489.259 72.8411 489.259 73.91V88.8948H485.625Z" fill="white"/>
<path d="M518.507 70.5184L515.243 71.4434C515.038 70.8987 514.735 70.3694 514.335 69.8555C513.945 69.3313 513.411 68.8997 512.734 68.5605C512.056 68.2214 511.189 68.0518 510.132 68.0518C508.684 68.0518 507.478 68.3858 506.514 69.0538C505.559 69.7116 505.082 70.5492 505.082 71.5667C505.082 72.4711 505.41 73.1854 506.067 73.7096C506.724 74.2338 507.75 74.6706 509.146 75.02L512.657 75.8833C514.771 76.3972 516.346 77.1834 517.383 78.242C518.42 79.2903 518.938 80.6418 518.938 82.2965C518.938 83.6532 518.548 84.8659 517.768 85.9348C516.998 87.0037 515.92 87.8465 514.535 88.4631C513.149 89.0798 511.538 89.3881 509.701 89.3881C507.289 89.3881 505.292 88.8639 503.712 87.8156C502.131 86.7673 501.13 85.2359 500.709 83.2215L504.158 82.3582C504.487 83.6326 505.108 84.5884 506.021 85.2257C506.945 85.8629 508.151 86.1815 509.639 86.1815C511.333 86.1815 512.677 85.8218 513.673 85.1023C514.679 84.3726 515.181 83.499 515.181 82.4815C515.181 81.6593 514.894 80.9707 514.319 80.4157C513.745 79.8505 512.862 79.4291 511.671 79.1516L507.73 78.2266C505.564 77.7127 503.973 76.9162 502.957 75.8371C501.951 74.7476 501.448 73.3858 501.448 71.7517C501.448 70.4156 501.823 69.2337 502.572 68.2059C503.332 67.1782 504.363 66.3714 505.667 65.7856C506.981 65.1997 508.469 64.9068 510.132 64.9068C512.472 64.9068 514.309 65.4207 515.643 66.4485C516.988 67.4762 517.942 68.8329 518.507 70.5184Z" fill="white"/>
<path d="M534.322 89.3881C532.044 89.3881 530.078 88.8845 528.426 87.8773C526.784 86.8598 525.516 85.4415 524.623 83.6223C523.74 81.7929 523.299 79.6655 523.299 77.24C523.299 74.8144 523.74 72.6767 524.623 70.8267C525.516 68.9665 526.758 67.5173 528.349 66.4793C529.95 65.431 531.818 64.9068 533.953 64.9068C535.184 64.9068 536.401 65.1124 537.602 65.5235C538.802 65.9346 539.896 66.6026 540.881 67.5276C541.866 68.4423 542.651 69.6551 543.236 71.1659C543.821 72.6767 544.114 74.5369 544.114 76.7466V78.2883H525.885V75.1433H540.419C540.419 73.8072 540.152 72.615 539.618 71.5667C539.095 70.5184 538.346 69.691 537.371 69.0847C536.406 68.4783 535.267 68.1751 533.953 68.1751C532.506 68.1751 531.253 68.5348 530.196 69.2543C529.149 69.9634 528.344 70.8884 527.779 72.0292C527.215 73.17 526.932 74.3931 526.932 75.6983V77.7949C526.932 79.5832 527.24 81.0992 527.856 82.3428C528.482 83.5761 529.349 84.5165 530.458 85.164C531.566 85.8012 532.855 86.1198 534.322 86.1198C535.277 86.1198 536.139 85.9862 536.909 85.719C537.689 85.4415 538.361 85.0304 538.926 84.4857C539.49 83.9307 539.926 83.2421 540.234 82.4199L543.745 83.4065C543.375 84.5987 542.754 85.647 541.882 86.5515C541.009 87.4456 539.932 88.1445 538.649 88.6481C537.366 89.1414 535.923 89.3881 534.322 89.3881Z" fill="white"/>
<path d="M561.773 88.8948V86.1198L572.18 74.7117C573.402 73.3756 574.408 72.2142 575.198 71.2275C575.988 70.2306 576.573 69.2954 576.953 68.4218C577.343 67.5379 577.538 66.6129 577.538 65.6468C577.538 64.5368 577.271 63.5759 576.738 62.7639C576.214 61.952 575.496 61.3251 574.582 60.8831C573.669 60.4412 572.642 60.2202 571.503 60.2202C570.292 60.2202 569.235 60.472 568.332 60.9756C567.439 61.469 566.746 62.1627 566.253 63.0569C565.771 63.951 565.529 64.9993 565.529 66.2018H561.896C561.896 64.3518 562.322 62.728 563.174 61.3302C564.026 59.9325 565.186 58.843 566.653 58.0619C568.131 57.2808 569.789 56.8903 571.626 56.8903C573.474 56.8903 575.111 57.2808 576.537 58.0619C577.964 58.843 579.083 59.8965 579.894 61.2223C580.705 62.5481 581.11 64.0229 581.11 65.6468C581.11 66.8082 580.9 67.9439 580.479 69.0538C580.068 70.1535 579.35 71.3817 578.323 72.7384C577.307 74.0847 575.896 75.7291 574.09 77.6716L567.007 85.2565V85.5032H581.664V88.8948H561.773Z" fill="white"/>
<path d="M598.307 89.3264C595.987 89.3264 594.012 88.6944 592.38 87.4302C590.748 86.1558 589.501 84.311 588.639 81.8957C587.776 79.4702 587.345 76.5411 587.345 73.1084C587.345 69.6962 587.776 66.7825 588.639 64.3672C589.511 61.9417 590.763 60.0918 592.395 58.8173C594.037 57.5326 596.008 56.8903 598.307 56.8903C600.606 56.8903 602.572 57.5326 604.204 58.8173C605.846 60.0918 607.098 61.9417 607.96 64.3672C608.833 66.7825 609.269 69.6962 609.269 73.1084C609.269 76.5411 608.838 79.4702 607.976 81.8957C607.113 84.311 605.866 86.1558 604.234 87.4302C602.602 88.6944 600.627 89.3264 598.307 89.3264ZM598.307 85.9348C600.606 85.9348 602.392 84.8248 603.665 82.6049C604.937 80.3849 605.574 77.2194 605.574 73.1084C605.574 70.3745 605.281 68.0466 604.696 66.1247C604.122 64.2028 603.29 62.7382 602.202 61.731C601.124 60.7238 599.826 60.2202 598.307 60.2202C596.029 60.2202 594.248 61.3456 592.965 63.5964C591.682 65.8369 591.04 69.0076 591.04 73.1084C591.04 75.8422 591.328 78.1649 591.902 80.0766C592.477 81.9882 593.304 83.4425 594.381 84.4394C595.469 85.4363 596.778 85.9348 598.307 85.9348Z" fill="white"/>
<path d="M626.204 57.3219V88.8948H622.386V61.3302H622.201L614.503 66.4485V62.5635L622.386 57.3219H626.204Z" fill="white"/>
<path d="M645.742 89.3264C644.448 89.3059 643.155 89.0592 641.862 88.5864C640.569 88.1137 639.388 87.3171 638.321 86.1969C637.253 85.0664 636.396 83.5401 635.75 81.6182C635.103 79.686 634.78 77.2605 634.78 74.3417C634.78 71.5462 635.041 69.0693 635.565 66.911C636.088 64.7424 636.848 62.9181 637.843 61.4381C638.839 59.9479 640.04 58.8173 641.446 58.0465C642.862 57.2757 644.458 56.8903 646.234 56.8903C648 56.8903 649.57 57.2449 650.945 57.954C652.331 58.6529 653.46 59.6293 654.332 60.8831C655.205 62.137 655.769 63.581 656.026 65.2152H652.269C651.92 63.7968 651.243 62.6201 650.237 61.6848C649.231 60.7495 647.897 60.2819 646.234 60.2819C643.791 60.2819 641.867 61.3456 640.461 63.4731C639.065 65.6006 638.362 68.5862 638.351 72.43H638.598C639.173 71.5564 639.855 70.8113 640.645 70.1947C641.446 69.5677 642.329 69.0847 643.294 68.7455C644.258 68.4064 645.28 68.2368 646.357 68.2368C648.164 68.2368 649.816 68.689 651.315 69.5934C652.813 70.4876 654.014 71.726 654.917 73.3088C655.821 74.8812 656.272 76.685 656.272 78.7199C656.272 80.6727 655.836 82.461 654.964 84.0848C654.091 85.6984 652.865 86.9831 651.284 87.9389C649.714 88.8845 647.866 89.347 645.742 89.3264ZM645.742 85.9348C647.035 85.9348 648.195 85.6111 649.221 84.9636C650.258 84.3161 651.074 83.4476 651.669 82.3582C652.274 81.2688 652.577 80.056 652.577 78.7199C652.577 77.4147 652.285 76.2276 651.7 75.1587C651.125 74.0796 650.329 73.2214 649.313 72.5842C648.307 71.947 647.158 71.6284 645.865 71.6284C644.89 71.6284 643.981 71.8237 643.14 72.2142C642.298 72.5945 641.559 73.1186 640.923 73.7867C640.296 74.4547 639.804 75.2204 639.445 76.0837C639.085 76.9368 638.906 77.8361 638.906 78.7816C638.906 80.0355 639.198 81.2071 639.783 82.2965C640.379 83.386 641.189 84.2647 642.216 84.9327C643.253 85.6008 644.428 85.9348 645.742 85.9348Z" fill="white"/>
<path d="M367.24 99.6309V131.204H363.422V99.6309H367.24Z" fill="white"/>
<path d="M392.139 107.524C391.954 105.962 391.205 104.749 389.891 103.886C388.577 103.022 386.966 102.591 385.056 102.591C383.661 102.591 382.439 102.817 381.392 103.269C380.356 103.721 379.545 104.343 378.96 105.135C378.385 105.926 378.098 106.825 378.098 107.832C378.098 108.675 378.298 109.4 378.698 110.006C379.109 110.602 379.632 111.101 380.268 111.501C380.905 111.892 381.572 112.216 382.27 112.473C382.968 112.719 383.609 112.92 384.194 113.074L387.397 113.937C388.218 114.153 389.131 114.451 390.137 114.831C391.153 115.212 392.123 115.731 393.047 116.388C393.981 117.036 394.751 117.868 395.356 118.886C395.962 119.903 396.265 121.152 396.265 122.632C396.265 124.338 395.818 125.88 394.925 127.257C394.042 128.634 392.749 129.729 391.045 130.541C389.352 131.353 387.294 131.759 384.872 131.759C382.614 131.759 380.658 131.394 379.006 130.664C377.364 129.934 376.07 128.917 375.126 127.612C374.192 126.306 373.664 124.79 373.54 123.064H377.482C377.584 124.256 377.985 125.243 378.683 126.024C379.391 126.795 380.284 127.37 381.361 127.75C382.449 128.12 383.62 128.305 384.872 128.305C386.329 128.305 387.638 128.069 388.798 127.596C389.957 127.113 390.876 126.445 391.553 125.592C392.231 124.729 392.57 123.722 392.57 122.57C392.57 121.522 392.277 120.669 391.692 120.011C391.107 119.354 390.337 118.819 389.383 118.408C388.428 117.997 387.397 117.637 386.288 117.329L382.408 116.219C379.945 115.51 377.995 114.497 376.558 113.182C375.121 111.866 374.403 110.145 374.403 108.017C374.403 106.25 374.88 104.708 375.834 103.392C376.799 102.067 378.092 101.039 379.714 100.309C381.346 99.5692 383.168 99.1992 385.18 99.1992C387.212 99.1992 389.018 99.5641 390.599 100.294C392.18 101.013 393.432 102 394.356 103.254C395.29 104.508 395.782 105.931 395.833 107.524H392.139Z" fill="white"/>
<path d="M429.146 115.417C429.146 118.747 428.546 121.625 427.345 124.05C426.144 126.476 424.497 128.346 422.403 129.662C420.309 130.978 417.917 131.635 415.228 131.635C412.539 131.635 410.148 130.978 408.054 129.662C405.96 128.346 404.313 126.476 403.112 124.05C401.911 121.625 401.311 118.747 401.311 115.417C401.311 112.087 401.911 109.21 403.112 106.784C404.313 104.359 405.96 102.488 408.054 101.172C410.148 99.857 412.539 99.1992 415.228 99.1992C417.917 99.1992 420.309 99.857 422.403 101.172C424.497 102.488 426.144 104.359 427.345 106.784C428.546 109.21 429.146 112.087 429.146 115.417ZM425.451 115.417C425.451 112.683 424.994 110.376 424.081 108.495C423.178 106.614 421.951 105.191 420.401 104.225C418.862 103.259 417.137 102.776 415.228 102.776C413.319 102.776 411.59 103.259 410.04 104.225C408.5 105.191 407.274 106.614 406.36 108.495C405.457 110.376 405.006 112.683 405.006 115.417C405.006 118.151 405.457 120.458 406.36 122.339C407.274 124.22 408.5 125.643 410.04 126.61C411.59 127.576 413.319 128.059 415.228 128.059C417.137 128.059 418.862 127.576 420.401 126.61C421.951 125.643 423.178 124.22 424.081 122.339C424.994 120.458 425.451 118.151 425.451 115.417Z" fill="white"/>
<path d="M447.205 131.204V128.429L457.613 117.021C458.834 115.684 459.84 114.523 460.63 113.536C461.421 112.54 462.006 111.604 462.386 110.731C462.776 109.847 462.971 108.922 462.971 107.956C462.971 106.846 462.704 105.885 462.17 105.073C461.647 104.261 460.928 103.634 460.015 103.192C459.101 102.75 458.075 102.529 456.935 102.529C455.724 102.529 454.667 102.781 453.764 103.285C452.871 103.778 452.178 104.472 451.686 105.366C451.203 106.26 450.962 107.308 450.962 108.511H447.329C447.329 106.661 447.754 105.037 448.606 103.639C449.458 102.241 450.618 101.152 452.086 100.371C453.564 99.5897 455.221 99.1992 457.059 99.1992C458.906 99.1992 460.543 99.5897 461.97 100.371C463.397 101.152 464.515 102.205 465.326 103.531C466.137 104.857 466.542 106.332 466.542 107.956C466.542 109.117 466.332 110.253 465.911 111.363C465.501 112.462 464.782 113.691 463.756 115.047C462.74 116.394 461.328 118.038 459.522 119.981L452.44 127.565V127.812H467.097V131.204H447.205Z" fill="white"/>
<path d="M483.924 131.635C482.631 131.615 481.338 131.368 480.044 130.895C478.751 130.423 477.571 129.626 476.503 128.506C475.436 127.375 474.579 125.849 473.932 123.927C473.286 121.995 472.962 119.569 472.962 116.651C472.962 113.855 473.224 111.378 473.748 109.22C474.271 107.051 475.031 105.227 476.026 103.747C477.022 102.257 478.223 101.126 479.629 100.355C481.045 99.5846 482.641 99.1992 484.417 99.1992C486.182 99.1992 487.753 99.5538 489.128 100.263C490.514 100.962 491.643 101.938 492.515 103.192C493.388 104.446 493.952 105.89 494.209 107.524H490.452C490.103 106.106 489.426 104.929 488.42 103.994C487.414 103.058 486.08 102.591 484.417 102.591C481.974 102.591 480.05 103.655 478.643 105.782C477.248 107.909 476.545 110.895 476.534 114.739H476.781C477.355 113.865 478.038 113.12 478.828 112.504C479.629 111.877 480.512 111.394 481.476 111.054C482.441 110.715 483.462 110.546 484.54 110.546C486.346 110.546 487.999 110.998 489.498 111.902C490.996 112.796 492.197 114.035 493.1 115.618C494.003 117.19 494.455 118.994 494.455 121.029C494.455 122.982 494.019 124.77 493.146 126.394C492.274 128.007 491.047 129.292 489.467 130.248C487.896 131.193 486.049 131.656 483.924 131.635ZM483.924 128.244C485.217 128.244 486.377 127.92 487.404 127.272C488.44 126.625 489.256 125.757 489.852 124.667C490.457 123.578 490.76 122.365 490.76 121.029C490.76 119.724 490.467 118.537 489.882 117.468C489.308 116.389 488.512 115.53 487.496 114.893C486.49 114.256 485.341 113.937 484.047 113.937C483.072 113.937 482.164 114.133 481.322 114.523C480.481 114.903 479.742 115.428 479.105 116.096C478.479 116.764 477.987 117.529 477.627 118.393C477.268 119.246 477.089 120.145 477.089 121.091C477.089 122.344 477.381 123.516 477.966 124.605C478.561 125.695 479.372 126.574 480.399 127.242C481.435 127.91 482.61 128.244 483.924 128.244Z" fill="white"/>
<path d="M510.794 131.635C508.474 131.635 506.498 131.003 504.866 129.739C503.234 128.465 501.987 126.62 501.125 124.205C500.263 121.779 499.832 118.85 499.832 115.417C499.832 112.005 500.263 109.091 501.125 106.676C501.998 104.251 503.25 102.401 504.882 101.126C506.524 99.8415 508.495 99.1992 510.794 99.1992C513.093 99.1992 515.058 99.8415 516.69 101.126C518.332 102.401 519.585 104.251 520.447 106.676C521.319 109.091 521.755 112.005 521.755 115.417C521.755 118.85 521.324 121.779 520.462 124.205C519.6 126.62 518.353 128.465 516.721 129.739C515.089 131.003 513.113 131.635 510.794 131.635ZM510.794 128.244C513.093 128.244 514.879 127.134 516.151 124.914C517.424 122.694 518.061 119.528 518.061 115.417C518.061 112.683 517.768 110.356 517.183 108.434C516.608 106.512 515.777 105.047 514.689 104.04C513.611 103.033 512.313 102.529 510.794 102.529C508.515 102.529 506.734 103.655 505.451 105.905C504.168 108.146 503.527 111.316 503.527 115.417C503.527 118.151 503.814 120.474 504.389 122.385C504.964 124.297 505.79 125.751 506.868 126.748C507.956 127.745 509.264 128.244 510.794 128.244Z" fill="white"/>
<path d="M537.89 131.635C535.571 131.635 533.595 131.003 531.963 129.739C530.331 128.465 529.084 126.62 528.222 124.205C527.36 121.779 526.928 118.85 526.928 115.417C526.928 112.005 527.36 109.091 528.222 106.676C529.094 104.251 530.346 102.401 531.978 101.126C533.621 99.8415 535.591 99.1992 537.89 99.1992C540.189 99.1992 542.155 99.8415 543.787 101.126C545.429 102.401 546.681 104.251 547.543 106.676C548.416 109.091 548.852 112.005 548.852 115.417C548.852 118.85 548.421 121.779 547.559 124.205C546.697 126.62 545.45 128.465 543.818 129.739C542.186 131.003 540.21 131.635 537.89 131.635ZM537.89 128.244C540.189 128.244 541.975 127.134 543.248 124.914C544.521 122.694 545.157 119.528 545.157 115.417C545.157 112.683 544.865 110.356 544.28 108.434C543.705 106.512 542.873 105.047 541.785 104.04C540.708 103.033 539.409 102.529 537.89 102.529C535.612 102.529 533.831 103.655 532.548 105.905C531.265 108.146 530.623 111.316 530.623 115.417C530.623 118.151 530.911 120.474 531.486 122.385C532.06 124.297 532.887 125.751 533.964 126.748C535.052 127.745 536.361 128.244 537.89 128.244Z" fill="white"/>
<path d="M564.987 131.635C562.667 131.635 560.691 131.003 559.059 129.739C557.427 128.465 556.18 126.62 555.318 124.205C554.456 121.779 554.025 118.85 554.025 115.417C554.025 112.005 554.456 109.091 555.318 106.676C556.191 104.251 557.443 102.401 559.075 101.126C560.717 99.8415 562.688 99.1992 564.987 99.1992C567.286 99.1992 569.251 99.8415 570.883 101.126C572.526 102.401 573.778 104.251 574.64 106.676C575.512 109.091 575.949 112.005 575.949 115.417C575.949 118.85 575.518 121.779 574.655 124.205C573.793 126.62 572.546 128.465 570.914 129.739C569.282 131.003 567.306 131.635 564.987 131.635ZM564.987 128.244C567.286 128.244 569.072 127.134 570.345 124.914C571.617 122.694 572.254 119.528 572.254 115.417C572.254 112.683 571.961 110.356 571.376 108.434C570.801 106.512 569.97 105.047 568.882 104.04C567.804 103.033 566.506 102.529 564.987 102.529C562.708 102.529 560.927 103.655 559.644 105.905C558.361 108.146 557.72 111.316 557.72 115.417C557.72 118.151 558.007 120.474 558.582 122.385C559.157 124.297 559.983 125.751 561.061 126.748C562.149 127.745 563.457 128.244 564.987 128.244Z" fill="white"/>
<path d="M384.976 194.115C384.637 193.077 384.19 192.147 383.636 191.325C383.092 190.492 382.44 189.783 381.681 189.197C380.932 188.612 380.08 188.164 379.125 187.856C378.171 187.548 377.124 187.394 375.985 187.394C374.116 187.394 372.418 187.877 370.889 188.843C369.359 189.809 368.143 191.232 367.24 193.113C366.337 194.994 365.885 197.301 365.885 200.035C365.885 202.769 366.342 205.076 367.255 206.957C368.169 208.838 369.405 210.261 370.965 211.227C372.526 212.194 374.281 212.677 376.231 212.677C378.037 212.677 379.628 212.291 381.004 211.52C382.389 210.739 383.467 209.64 384.237 208.221C385.017 206.793 385.407 205.112 385.407 203.18L386.577 203.427H377.093V200.035H389.102V203.427C389.102 206.027 388.547 208.288 387.439 210.21C386.341 212.132 384.822 213.622 382.882 214.681C380.952 215.729 378.735 216.253 376.231 216.253C373.439 216.253 370.986 215.595 368.872 214.28C366.768 212.964 365.125 211.094 363.945 208.668C362.775 206.243 362.19 203.365 362.19 200.035C362.19 197.538 362.523 195.292 363.191 193.298C363.868 191.294 364.823 189.588 366.054 188.18C367.286 186.772 368.743 185.693 370.427 184.942C372.11 184.192 373.963 183.817 375.985 183.817C377.647 183.817 379.197 184.069 380.634 184.572C382.081 185.066 383.369 185.77 384.498 186.684C385.638 187.589 386.587 188.673 387.347 189.937C388.106 191.191 388.63 192.584 388.917 194.115H384.976Z" fill="white"/>
<path d="M395.641 215.821V184.249H406.295C408.758 184.249 410.78 184.67 412.361 185.513C413.941 186.345 415.112 187.491 415.871 188.951C416.631 190.41 417.01 192.07 417.01 193.93C417.01 195.79 416.631 197.44 415.871 198.879C415.112 200.318 413.947 201.448 412.376 202.27C410.806 203.082 408.799 203.488 406.356 203.488H397.735V200.035H406.233C407.917 200.035 409.271 199.788 410.298 199.295C411.334 198.802 412.084 198.103 412.546 197.198C413.018 196.284 413.254 195.194 413.254 193.93C413.254 192.666 413.018 191.561 412.546 190.616C412.073 189.67 411.319 188.94 410.282 188.427C409.246 187.902 407.876 187.64 406.172 187.64H399.459V215.821H395.641ZM410.483 201.638L418.242 215.821H413.808L406.172 201.638H410.483Z" fill="white"/>
<path d="M427.191 184.249V215.821H423.373V184.249H427.191Z" fill="white"/>
<path d="M464.283 192.142C464.098 190.58 463.349 189.367 462.035 188.504C460.722 187.64 459.11 187.209 457.201 187.209C455.805 187.209 454.584 187.435 453.537 187.887C452.5 188.339 451.689 188.961 451.104 189.752C450.53 190.544 450.242 191.443 450.242 192.45C450.242 193.293 450.442 194.018 450.843 194.624C451.253 195.22 451.777 195.718 452.413 196.119C453.049 196.51 453.717 196.834 454.414 197.091C455.112 197.337 455.754 197.538 456.339 197.692L459.541 198.555C460.362 198.771 461.276 199.069 462.282 199.449C463.298 199.83 464.268 200.349 465.191 201.006C466.125 201.654 466.895 202.486 467.501 203.504C468.106 204.521 468.409 205.77 468.409 207.25C468.409 208.956 467.963 210.498 467.07 211.875C466.187 213.252 464.894 214.347 463.19 215.159C461.496 215.971 459.439 216.376 457.016 216.376C454.758 216.376 452.803 216.012 451.151 215.282C449.508 214.552 448.215 213.535 447.271 212.229C446.337 210.924 445.808 209.408 445.685 207.682H449.626C449.729 208.874 450.129 209.86 450.827 210.642C451.535 211.412 452.428 211.988 453.506 212.368C454.594 212.738 455.764 212.923 457.016 212.923C458.474 212.923 459.782 212.687 460.942 212.214C462.102 211.731 463.021 211.063 463.698 210.21C464.375 209.347 464.714 208.339 464.714 207.188C464.714 206.14 464.422 205.287 463.837 204.629C463.252 203.971 462.482 203.437 461.527 203.026C460.573 202.615 459.541 202.255 458.433 201.947L454.553 200.837C452.09 200.128 450.14 199.115 448.703 197.8C447.266 196.484 446.547 194.763 446.547 192.635C446.547 190.867 447.024 189.326 447.979 188.01C448.944 186.684 450.237 185.657 451.859 184.927C453.491 184.187 455.313 183.817 457.324 183.817C459.356 183.817 461.163 184.182 462.743 184.912C464.324 185.631 465.576 186.618 466.5 187.872C467.434 189.125 467.927 190.549 467.978 192.142H464.283Z" fill="white"/>
<path d="M472.962 187.64V184.249H496.61V187.64H486.696V215.821H482.877V187.64H472.962Z" fill="white"/>
<path d="M500.113 215.821H496.11L507.688 184.249H511.629L523.207 215.821H519.204L509.781 189.244H509.535L500.113 215.821ZM501.591 203.488H517.726V206.88H501.591V203.488Z" fill="white"/>
<path d="M553.121 184.249V215.821H549.426L532.244 191.032H531.936V215.821H528.118V184.249H531.813L549.056 209.1H549.364V184.249H553.121Z" fill="white"/>
<path d="M570.491 215.821H560.761V184.249H570.922C573.981 184.249 576.598 184.881 578.774 186.145C580.95 187.399 582.618 189.202 583.777 191.556C584.937 193.899 585.517 196.705 585.517 199.973C585.517 203.262 584.932 206.094 583.762 208.468C582.592 210.832 580.888 212.651 578.651 213.925C576.413 215.189 573.693 215.821 570.491 215.821ZM564.579 212.43H570.244C572.851 212.43 575.012 211.926 576.726 210.919C578.44 209.912 579.718 208.478 580.56 206.618C581.401 204.758 581.822 202.543 581.822 199.973C581.822 197.425 581.406 195.23 580.575 193.391C579.744 191.541 578.502 190.122 576.849 189.136C575.197 188.139 573.139 187.64 570.676 187.64H564.579V212.43Z" fill="white"/>
<path d="M591.733 215.821H587.73L599.308 184.249H603.249L614.827 215.821H610.824L601.402 189.244H601.155L591.733 215.821ZM593.211 203.488H609.346V206.88H593.211V203.488Z" fill="white"/>
<path d="M619.738 215.821V184.249H630.392C632.855 184.249 634.877 184.67 636.458 185.513C638.038 186.345 639.208 187.491 639.968 188.951C640.728 190.41 641.107 192.07 641.107 193.93C641.107 195.79 640.728 197.44 639.968 198.879C639.208 200.318 638.044 201.448 636.473 202.27C634.903 203.082 632.896 203.488 630.453 203.488H621.832V200.035H630.33C632.014 200.035 633.368 199.788 634.395 199.295C635.431 198.802 636.181 198.103 636.643 197.198C637.115 196.284 637.351 195.194 637.351 193.93C637.351 192.666 637.115 191.561 636.643 190.616C636.17 189.67 635.416 188.94 634.379 188.427C633.343 187.902 631.973 187.64 630.269 187.64H623.556V215.821H619.738ZM634.58 201.638L642.339 215.821H637.905L630.269 201.638H634.58Z" fill="white"/>
<path d="M657.2 215.821H647.47V184.249H657.631C660.69 184.249 663.307 184.881 665.483 186.145C667.659 187.399 669.327 189.202 670.486 191.556C671.646 193.899 672.226 196.705 672.226 199.973C672.226 203.262 671.641 206.094 670.471 208.468C669.301 210.832 667.597 212.651 665.359 213.925C663.122 215.189 660.402 215.821 657.2 215.821ZM651.288 212.43H656.953C659.56 212.43 661.721 211.926 663.435 210.919C665.149 209.912 666.427 208.478 667.269 206.618C668.11 204.758 668.531 202.543 668.531 199.973C668.531 197.425 668.115 195.23 667.284 193.391C666.453 191.541 665.211 190.122 663.558 189.136C661.906 188.139 659.848 187.64 657.385 187.64H651.288V212.43Z" fill="white"/>
<path d="M695.874 192.142C695.689 190.58 694.94 189.367 693.626 188.504C692.312 187.64 690.701 187.209 688.792 187.209C687.396 187.209 686.175 187.435 685.128 187.887C684.091 188.339 683.28 188.961 682.695 189.752C682.12 190.544 681.833 191.443 681.833 192.45C681.833 193.293 682.033 194.018 682.433 194.624C682.844 195.22 683.367 195.718 684.004 196.119C684.64 196.51 685.307 196.834 686.005 197.091C686.703 197.337 687.345 197.538 687.93 197.692L691.132 198.555C691.953 198.771 692.867 199.069 693.872 199.449C694.889 199.83 695.859 200.349 696.782 201.006C697.716 201.654 698.486 202.486 699.092 203.504C699.697 204.521 700 205.77 700 207.25C700 208.956 699.554 210.498 698.661 211.875C697.778 213.252 696.485 214.347 694.781 215.159C693.087 215.971 691.029 216.376 688.607 216.376C686.349 216.376 684.394 216.012 682.741 215.282C681.099 214.552 679.806 213.535 678.862 212.229C677.928 210.924 677.399 209.408 677.276 207.682H681.217C681.32 208.874 681.72 209.86 682.418 210.642C683.126 211.412 684.019 211.988 685.097 212.368C686.185 212.738 687.355 212.923 688.607 212.923C690.065 212.923 691.373 212.687 692.533 212.214C693.693 211.731 694.612 211.063 695.289 210.21C695.966 209.347 696.305 208.339 696.305 207.188C696.305 206.14 696.012 205.287 695.427 204.629C694.842 203.971 694.073 203.437 693.118 203.026C692.164 202.615 691.132 202.255 690.024 201.947L686.144 200.837C683.68 200.128 681.73 199.115 680.293 197.8C678.856 196.484 678.138 194.763 678.138 192.635C678.138 190.867 678.615 189.326 679.57 188.01C680.535 186.684 681.828 185.657 683.45 184.927C685.081 184.187 686.903 183.817 688.915 183.817C690.947 183.817 692.754 184.182 694.334 184.912C695.915 185.631 697.167 186.618 698.091 187.872C699.025 189.125 699.518 190.549 699.569 192.142H695.874Z" fill="white"/>
<path d="M390.025 242.344C390.025 245.674 389.425 248.552 388.224 250.977C387.023 253.403 385.376 255.273 383.282 256.589C381.188 257.904 378.797 258.562 376.108 258.562C373.419 258.562 371.027 257.904 368.933 256.589C366.839 255.273 365.192 253.403 363.991 250.977C362.79 248.552 362.19 245.674 362.19 242.344C362.19 239.014 362.79 236.136 363.991 233.711C365.192 231.285 366.839 229.415 368.933 228.099C371.027 226.784 373.419 226.126 376.108 226.126C378.797 226.126 381.188 226.784 383.282 228.099C385.376 229.415 387.023 231.285 388.224 233.711C389.425 236.136 390.025 239.014 390.025 242.344ZM386.33 242.344C386.33 239.61 385.874 237.303 384.96 235.422C384.057 233.541 382.83 232.118 381.281 231.152C379.741 230.186 378.017 229.703 376.108 229.703C374.199 229.703 372.469 230.186 370.919 231.152C369.38 232.118 368.153 233.541 367.24 235.422C366.337 237.303 365.885 239.61 365.885 242.344C365.885 245.078 366.337 247.385 367.24 249.266C368.153 251.147 369.38 252.57 370.919 253.536C372.469 254.502 374.199 254.985 376.108 254.985C378.017 254.985 379.741 254.502 381.281 253.536C382.83 252.57 384.057 251.147 384.96 249.266C385.874 247.385 386.33 245.078 386.33 242.344Z" fill="white"/>
<path d="M406.176 258.13H396.446V226.558H406.607C409.665 226.558 412.283 227.19 414.459 228.454C416.634 229.708 418.302 231.511 419.462 233.865C420.622 236.208 421.202 239.014 421.202 242.282C421.202 245.571 420.617 248.403 419.447 250.777C418.277 253.141 416.573 254.96 414.335 256.234C412.098 257.498 409.378 258.13 406.176 258.13ZM400.264 254.739H405.929C408.536 254.739 410.697 254.235 412.411 253.228C414.125 252.221 415.403 250.787 416.244 248.927C417.086 247.067 417.507 244.852 417.507 242.282C417.507 239.734 417.091 237.539 416.26 235.7C415.428 233.85 414.187 232.431 412.534 231.445C410.882 230.448 408.824 229.949 406.36 229.949H400.264V254.739Z" fill="white"/>
<path d="M444.85 234.451C444.665 232.889 443.916 231.676 442.602 230.813C441.288 229.949 439.677 229.518 437.768 229.518C436.372 229.518 435.15 229.744 434.104 230.196C433.067 230.648 432.256 231.27 431.671 232.061C431.096 232.853 430.809 233.752 430.809 234.759C430.809 235.602 431.009 236.326 431.409 236.933C431.82 237.529 432.343 238.027 432.98 238.428C433.616 238.819 434.283 239.143 434.981 239.399C435.679 239.646 436.321 239.847 436.906 240.001L440.108 240.864C440.929 241.08 441.842 241.378 442.848 241.758C443.864 242.138 444.834 242.657 445.758 243.315C446.692 243.963 447.462 244.795 448.067 245.813C448.673 246.83 448.976 248.079 448.976 249.559C448.976 251.265 448.529 252.807 447.636 254.184C446.754 255.561 445.46 256.656 443.757 257.468C442.063 258.279 440.005 258.685 437.583 258.685C435.325 258.685 433.37 258.321 431.717 257.591C430.075 256.861 428.782 255.844 427.837 254.538C426.903 253.233 426.375 251.717 426.252 249.991H430.193C430.296 251.183 430.696 252.169 431.394 252.95C432.102 253.721 432.995 254.297 434.073 254.677C435.161 255.047 436.331 255.232 437.583 255.232C439.04 255.232 440.349 254.996 441.509 254.523C442.669 254.04 443.587 253.372 444.265 252.519C444.942 251.656 445.281 250.648 445.281 249.497C445.281 248.449 444.988 247.596 444.403 246.938C443.818 246.28 443.048 245.746 442.094 245.335C441.139 244.924 440.108 244.564 438.999 244.256L435.12 243.146C432.656 242.436 430.706 241.424 429.269 240.109C427.832 238.793 427.114 237.072 427.114 234.944C427.114 233.176 427.591 231.635 428.546 230.319C429.51 228.993 430.804 227.966 432.425 227.236C434.057 226.496 435.879 226.126 437.891 226.126C439.923 226.126 441.73 226.491 443.31 227.221C444.891 227.94 446.143 228.927 447.067 230.18C448.001 231.434 448.493 232.858 448.545 234.451H444.85Z" fill="white"/>
<path d="M466.893 258.13V255.355L477.3 243.947C478.522 242.611 479.528 241.45 480.318 240.463C481.108 239.466 481.693 238.531 482.073 237.657C482.463 236.774 482.658 235.849 482.658 234.882C482.658 233.772 482.391 232.812 481.857 232C481.334 231.188 480.615 230.561 479.702 230.119C478.788 229.677 477.762 229.456 476.623 229.456C475.412 229.456 474.354 229.708 473.451 230.211C472.558 230.705 471.866 231.398 471.373 232.293C470.89 233.187 470.649 234.235 470.649 235.437H467.016C467.016 233.587 467.442 231.964 468.294 230.566C469.146 229.168 470.305 228.079 471.773 227.298C473.251 226.516 474.909 226.126 476.746 226.126C478.593 226.126 480.231 226.516 481.657 227.298C483.084 228.079 484.203 229.132 485.014 230.458C485.824 231.784 486.23 233.259 486.23 234.882C486.23 236.044 486.019 237.18 485.599 238.289C485.188 239.389 484.47 240.617 483.443 241.974C482.427 243.32 481.016 244.965 479.209 246.907L472.127 254.492V254.739H486.784V258.13H466.893Z" fill="white"/>
<path d="M503.427 258.562C501.107 258.562 499.131 257.93 497.499 256.666C495.868 255.391 494.62 253.547 493.758 251.131C492.896 248.706 492.465 245.777 492.465 242.344C492.465 238.932 492.896 236.018 493.758 233.603C494.631 231.177 495.883 229.327 497.515 228.053C499.157 226.768 501.128 226.126 503.427 226.126C505.726 226.126 507.691 226.768 509.323 228.053C510.966 229.327 512.218 231.177 513.08 233.603C513.952 236.018 514.389 238.932 514.389 242.344C514.389 245.777 513.958 248.706 513.095 251.131C512.233 253.547 510.986 255.391 509.354 256.666C507.722 257.93 505.746 258.562 503.427 258.562ZM503.427 255.17C505.726 255.17 507.512 254.06 508.785 251.841C510.057 249.621 510.694 246.455 510.694 242.344C510.694 239.61 510.401 237.282 509.816 235.36C509.241 233.438 508.41 231.974 507.322 230.967C506.244 229.959 504.946 229.456 503.427 229.456C501.148 229.456 499.367 230.581 498.085 232.832C496.802 235.073 496.16 238.243 496.16 242.344C496.16 245.078 496.447 247.401 497.022 249.312C497.597 251.224 498.423 252.678 499.501 253.675C500.589 254.672 501.898 255.17 503.427 255.17Z" fill="white"/>
<path d="M530.893 258.562C528.861 258.562 527.049 258.213 525.458 257.514C523.878 256.815 522.62 255.844 521.686 254.6C520.762 253.346 520.26 251.892 520.177 250.237H524.057C524.139 251.255 524.488 252.133 525.104 252.873C525.72 253.603 526.526 254.168 527.521 254.569C528.517 254.97 529.62 255.17 530.831 255.17C532.186 255.17 533.387 254.934 534.434 254.461C535.481 253.989 536.302 253.331 536.897 252.488C537.493 251.645 537.79 250.669 537.79 249.559C537.79 248.398 537.503 247.375 536.928 246.491C536.353 245.597 535.512 244.898 534.403 244.394C533.295 243.891 531.94 243.639 530.339 243.639H527.814V240.247H530.339C531.591 240.247 532.689 240.021 533.633 239.569C534.588 239.117 535.332 238.48 535.866 237.657C536.41 236.835 536.682 235.869 536.682 234.759C536.682 233.69 536.446 232.76 535.973 231.969C535.501 231.177 534.834 230.561 533.972 230.119C533.12 229.677 532.114 229.456 530.954 229.456C529.866 229.456 528.84 229.656 527.875 230.057C526.921 230.448 526.141 231.018 525.535 231.768C524.93 232.508 524.601 233.403 524.55 234.451H520.855C520.916 232.796 521.414 231.347 522.348 230.103C523.282 228.849 524.504 227.873 526.012 227.174C527.531 226.475 529.199 226.126 531.016 226.126C532.966 226.126 534.639 226.522 536.035 227.313C537.431 228.094 538.504 229.127 539.253 230.412C540.002 231.696 540.377 233.084 540.377 234.574C540.377 236.352 539.91 237.868 538.976 239.122C538.052 240.376 536.795 241.244 535.204 241.727V241.974C537.195 242.303 538.75 243.151 539.869 244.518C540.987 245.874 541.547 247.555 541.547 249.559C541.547 251.275 541.08 252.817 540.146 254.184C539.222 255.54 537.96 256.609 536.358 257.39C534.757 258.172 532.935 258.562 530.893 258.562Z" fill="white"/>
<path d="M558.128 258.562C555.808 258.562 553.833 257.93 552.201 256.666C550.569 255.391 549.322 253.547 548.459 251.131C547.597 248.706 547.166 245.777 547.166 242.344C547.166 238.932 547.597 236.018 548.459 233.603C549.332 231.177 550.584 229.327 552.216 228.053C553.858 226.768 555.829 226.126 558.128 226.126C560.427 226.126 562.393 226.768 564.025 228.053C565.667 229.327 566.919 231.177 567.781 233.603C568.654 236.018 569.09 238.932 569.09 242.344C569.09 245.777 568.659 248.706 567.797 251.131C566.934 253.547 565.687 255.391 564.055 256.666C562.423 257.93 560.448 258.562 558.128 258.562ZM558.128 255.17C560.427 255.17 562.213 254.06 563.486 251.841C564.758 249.621 565.395 246.455 565.395 242.344C565.395 239.61 565.102 237.282 564.517 235.36C563.942 233.438 563.111 231.974 562.023 230.967C560.945 229.959 559.647 229.456 558.128 229.456C555.849 229.456 554.069 230.581 552.786 232.832C551.503 235.073 550.861 238.243 550.861 242.344C550.861 245.078 551.149 247.401 551.723 249.312C552.298 251.224 553.124 252.678 554.202 253.675C555.29 254.672 556.599 255.17 558.128 255.17Z" fill="white"/>
<path d="M195.784 159.624C195.187 159.164 195.003 156.773 195.003 156.773C193.411 144.188 190.327 131.838 185.818 119.983C185.595 119.472 185.455 118.928 185.405 118.373C185.405 117.729 185.726 117.223 187.104 116.488C192.716 113.943 197.844 110.442 202.26 106.14C202.857 105.496 203.316 105.267 203.546 105.313C203.775 105.313 204.143 105.634 204.648 106.416C210.299 116.446 214.564 127.198 217.324 138.378C217.582 139.386 217.736 140.419 217.783 141.459C217.778 142.274 217.59 143.078 217.232 143.811C216.874 144.543 216.356 145.185 215.716 145.69C210.42 150.781 204.566 155.255 198.264 159.026C198.264 159.026 196.427 160.176 195.922 159.716M189.951 173.926C189.951 173.926 189.951 171.765 189.217 171.259C188.482 170.753 186.783 171.489 186.783 171.489C174.109 175.875 160.829 178.249 147.424 178.525C144.76 178.525 144.944 179.307 144.76 181.376C144.76 193.701 144.392 205.29 144.071 215.822C144.035 216.333 144.146 216.844 144.392 217.293C144.714 217.615 145.77 217.569 145.77 217.569C159.186 216.741 172.382 213.76 184.854 208.739C186.645 207.958 186.966 206.9 187.471 204.876C189.518 194.694 190.35 184.305 189.951 173.926ZM184.532 110.785C189.568 108.213 194.208 104.93 198.31 101.036C198.613 100.8 198.86 100.501 199.035 100.159C199.209 99.8177 199.307 99.4417 199.32 99.0581C199.235 98.099 198.867 97.1869 198.264 96.4367C191.286 86.7215 182.546 78.4066 172.499 71.9252C168.899 74.075 164.975 75.628 160.88 76.524C169.057 86.4803 175.911 97.4555 181.271 109.175C181.868 110.417 182.236 111.107 182.649 111.199C183.317 111.262 183.985 111.082 184.532 110.693M174.933 114.786C175.668 114.556 176.082 114.326 176.311 113.728C176.384 113.086 176.289 112.437 176.036 111.843C171.147 99.6334 164.843 88.0415 157.252 77.3057C152.69 78.0072 148.088 78.4067 143.474 78.5015C143.887 91.792 144.209 104.991 144.392 117.729C144.392 118.833 144.392 119.477 144.944 119.799C145.383 120.072 145.897 120.2 146.413 120.167C156.078 119.837 165.635 118.023 174.75 114.786M184.165 214.672C184.165 214.35 183.889 214.396 183.889 214.396C183.292 214.46 182.706 214.599 182.144 214.81C170.259 218.62 157.88 220.666 145.403 220.88C144.209 220.88 143.887 221.248 143.795 222.674L143.107 233.941C154.97 233.805 166.702 231.433 177.689 226.951C180.214 223.516 182.297 219.777 183.889 215.822C184.093 215.466 184.233 215.076 184.303 214.672M219.804 152.174C219.804 151.852 219.482 152.174 219.482 152.174C213.457 157.718 206.667 162.364 199.32 165.971C196.519 167.442 196.243 168.454 196.197 170.891C196.575 182.397 195.022 193.885 191.605 204.876C191.605 204.876 191.605 205.52 192.202 205.106C200.321 201.144 207.798 195.981 214.384 189.792C217.558 186.626 219.566 182.476 220.079 178.019C221.181 169.387 221.089 160.643 219.804 152.036M224.167 134.009C227.525 128.427 229.494 122.118 229.907 115.614C229.937 115.185 229.937 114.755 229.907 114.326C226.873 102.213 220.712 91.1115 212.042 82.1346C212.21 83.0754 212.287 84.0302 212.272 84.9858C212.221 88.7186 211.391 92.3996 209.838 95.793C209.404 96.687 209.139 97.6537 209.057 98.6442C209.138 99.3674 209.39 100.061 209.792 100.668C216.499 110.879 221.394 122.174 224.258 134.055M91.9905 162.659C93.2156 147.791 96.6521 133.19 102.186 119.339C102.236 119.081 102.236 118.815 102.186 118.557C102.186 118.143 102.186 117.867 101.176 117.499C93.2695 114.249 86.3053 109.062 80.9222 102.415C80.8511 102.332 80.812 102.226 80.812 102.116C80.812 102.007 80.8511 101.901 80.9222 101.817C81.1978 101.817 81.5193 101.817 81.5193 101.817C87.6296 107.281 94.7862 111.443 102.554 114.05C102.842 114.102 103.138 114.102 103.426 114.05C103.748 114.05 104.069 114.05 104.666 112.579C110.273 99.4929 117.644 87.2381 126.573 76.156C119.363 74.4085 112.014 70.4996 110.177 66.2228C110.177 66.2228 109.948 65.7628 110.177 65.5789C110.407 65.3949 110.912 65.8548 110.912 65.8548C118.903 74.5465 142.142 73.9487 142.142 73.9487C151.878 73.9487 172.04 70.5455 172.04 62.4057C172.04 54.2658 161.339 51.0926 141.912 50.8627C83.1267 50.8627 51.6672 101.817 51.6672 142.287C51.6672 191.126 93.0009 233.665 140.856 233.665C140.856 232.883 140.259 222.214 140.259 222.214C140.259 221.018 139.938 220.65 138.468 220.466C138.468 220.466 117.617 218.857 110.912 215.362C110.637 215.362 110.912 214.902 110.912 214.994C120.027 216.462 129.237 217.261 138.468 217.385C138.679 217.401 138.891 217.369 139.088 217.292C139.285 217.215 139.463 217.096 139.608 216.941C139.753 216.787 139.862 216.603 139.927 216.401C139.992 216.199 140.011 215.986 139.984 215.776C139.984 214.304 139.341 181.147 139.341 181.147C139.341 178.663 138.881 178.249 136.493 178.019C122.426 177.432 108.567 174.414 95.5268 169.098C95.1594 169.098 95.0216 169.098 94.8379 169.098C94.6542 169.098 94.5624 169.742 94.5624 169.742C93.9716 179.86 94.1866 190.009 95.2053 200.094C95.2053 200.324 95.2053 200.462 94.9298 200.462C94.8935 200.468 94.8563 200.467 94.8204 200.459C94.7845 200.451 94.7505 200.436 94.7205 200.415C94.6906 200.393 94.6652 200.366 94.6459 200.334C94.6266 200.303 94.6139 200.268 94.6083 200.232C92.3461 191.461 91.2345 182.433 91.3016 173.375C91.3016 172.685 91.3016 168.776 91.3016 168.776C91.3224 168.323 91.2063 167.875 90.9688 167.489C90.7312 167.104 90.383 166.799 89.9697 166.614C84.401 163.823 79.1632 160.414 74.3548 156.451C74.3068 156.412 74.2682 156.363 74.2416 156.308C74.2151 156.252 74.2012 156.191 74.2012 156.129C74.2012 156.067 74.2151 156.006 74.2416 155.951C74.2682 155.895 74.3068 155.846 74.3548 155.807H74.814C79.8662 158.923 85.1838 161.586 90.7046 163.763H91.3475C91.669 163.533 91.669 163.073 91.715 162.338M204.51 90.7343C206.152 86.2824 206.152 81.3898 204.51 76.9379C202.823 73.959 200.54 71.3602 197.805 69.3039C191.494 64.5738 184.573 60.7218 177.23 57.8529C177.951 59.0483 178.346 60.4118 178.378 61.8078C178.225 64.4779 177.097 66.9986 175.209 68.89C185.162 74.5762 194.076 81.9164 201.571 90.5963C201.571 90.5963 202.765 92.0679 203.408 92.0219C204.051 91.9759 204.326 90.7803 204.326 90.7803M226.738 158.429C226.746 164.604 226.146 170.766 224.947 176.824C231.059 165.765 234.222 153.316 234.133 140.677C234.135 136.394 233.782 132.117 233.076 127.892C232.238 132.392 230.605 136.706 228.254 140.631C226.883 142.495 226.157 144.755 226.187 147.07C226.693 153.186 226.738 158.613 226.738 158.613M187.425 215.729C185.839 219.031 183.964 222.186 181.822 225.157C194.116 218.538 204.882 209.403 213.42 198.346C206.651 203.771 199.172 208.243 191.191 211.637C189.526 212.556 188.205 213.993 187.425 215.729ZM139.708 128.628C139.753 128.256 139.72 127.878 139.609 127.519C139.498 127.161 139.314 126.83 139.066 126.548C138.819 126.266 138.516 126.039 138.175 125.882C137.835 125.726 137.465 125.643 137.09 125.639C126.847 125.213 116.718 123.324 107.008 120.029C106.704 119.886 106.378 119.793 106.044 119.753C105.722 119.753 105.539 119.753 105.263 120.626C99.9552 134.765 96.5572 149.551 95.1594 164.591C95.1594 165.649 95.1594 165.879 96.0779 166.201C109.179 170.682 122.925 172.982 136.769 173.007C136.769 173.007 138.376 173.007 138.789 172.547C139.203 172.087 139.432 171.535 139.387 169.696C139.387 158.429 139.708 128.628 139.708 128.628ZM107.789 114.142C107.238 115.338 107.514 115.706 107.514 115.706C107.646 115.901 107.84 116.047 108.065 116.12C117.557 118.929 127.378 120.475 137.274 120.718C137.963 120.784 138.652 120.587 139.203 120.167C139.463 119.84 139.655 119.463 139.765 119.06C139.876 118.657 139.903 118.235 139.846 117.821C140.121 105.037 140.443 91.792 141.224 78.7774C137.15 78.6329 133.095 78.1561 129.099 77.3518C120.417 88.6273 113.252 100.997 107.789 114.142ZM146.735 172.869C160.106 172.293 173.306 169.64 185.864 165.005C188.114 164.131 188.62 163.073 188.62 161.372C188.662 160.913 188.662 160.451 188.62 159.992C186.902 147.143 183.917 134.496 179.71 122.236C179.159 120.58 178.883 120.304 178.378 120.304C177.9 120.338 177.432 120.463 177 120.672C167.399 123.755 157.41 125.458 147.332 125.731C146.955 125.722 146.581 125.794 146.235 125.942C145.889 126.09 145.579 126.312 145.326 126.591C145.073 126.871 144.884 127.201 144.77 127.561C144.656 127.92 144.622 128.3 144.668 128.674C144.668 135.205 144.898 145.506 144.898 159.348V170.983C144.868 171.529 144.996 172.072 145.265 172.547C145.732 172.834 146.285 172.948 146.827 172.869M7.57782 205.06C14.5127 223.456 31.781 225.111 43.4004 236.424C45.3979 238.572 47.6858 240.43 50.1975 241.943C47.1977 239.063 44.6299 235.763 42.5738 232.147C35.7767 220.926 37.9811 205.244 33.067 193.195C37.7928 199.611 41.6964 206.594 44.6863 213.982C48.8197 226.169 50.4272 239.873 60.0717 249.071C49.6464 244.978 37.5219 245.852 28.2907 238.54C17.4402 230.43 10.0044 218.556 7.44005 205.244M104.207 258.452C105.119 258.453 106.022 258.281 106.871 257.947C98.0144 256.789 89.619 253.315 82.5297 247.875C72.334 239.367 64.5724 230.768 53.3664 223.777C54.7442 224.651 61.1739 237.574 66.5473 245.668C70.1913 250.677 75.528 254.191 81.5652 255.555C83.4465 255.926 85.2909 256.465 87.0763 257.165C86.3031 257.435 85.4615 257.435 84.6882 257.165C77.1222 255.552 69.4465 254.506 61.725 254.038C29.5766 254.038 21.1721 241.713 21.1721 241.713C25.5701 248.956 31.7528 254.947 39.1273 259.11C46.5018 263.273 54.8208 265.47 63.2865 265.488C81.6571 265.488 95.4349 258.406 104.299 258.406M222.513 265.488C235.373 265.488 255.075 259.05 264.582 241.713C264.582 241.713 256.269 254.038 224.029 254.038C216.307 254.507 208.632 255.552 201.066 257.165C200.276 257.431 199.421 257.431 198.632 257.165C200.432 256.462 202.292 255.923 204.189 255.555C210.221 254.179 215.554 250.668 219.207 245.668C224.58 237.758 231.01 224.651 232.387 223.777C221.135 230.768 213.374 239.367 203.224 247.875C196.126 253.3 187.735 256.772 178.883 257.947C179.715 258.284 180.604 258.456 181.501 258.452C190.319 258.452 204.189 265.535 222.559 265.535M22.458 213.614C26.3141 216.831 29.9504 220.303 33.3425 224.007C33.3425 224.007 32.5618 221.57 31.8729 218.535C30.9561 212.774 29.4162 207.13 27.2803 201.703C24.8921 196.691 15.0638 180.319 13.1808 171.351C13.1808 171.351 6.1541 199.542 22.6417 213.614M225.774 248.749C236.153 244.656 248.278 245.53 257.509 238.218C268.36 230.108 275.795 218.235 278.36 204.922C271.425 223.317 254.156 224.973 242.537 236.286C240.54 238.434 238.252 240.292 235.74 241.805C238.726 238.913 241.293 235.615 243.364 232.009C250.161 220.788 247.956 205.106 252.871 193.057C248.128 199.462 244.223 206.447 241.251 213.844C237.118 226.031 235.51 239.735 225.912 248.933M200.331 269.305C184.302 262.775 167.585 254.497 148.296 258.452C146.362 258.887 144.396 259.163 142.418 259.28C140.439 259.166 138.473 258.889 136.539 258.452C117.204 254.497 100.533 262.775 84.5045 269.305C78.2993 271.598 71.6689 272.506 65.0769 271.966C58.4848 271.426 52.0901 269.451 46.3397 266.178C51.5744 271.989 58.2659 276.292 65.7206 278.641C72.4318 280.811 79.5468 281.429 86.5309 280.449C93.515 279.47 100.187 276.917 106.044 272.985C115.505 268.018 123.68 258.176 136.172 261.901C123.256 267.463 111.412 275.245 101.176 284.895L107.743 290C117.044 278.569 128.866 269.455 142.28 263.373C155.675 269.464 167.48 278.577 176.771 290L183.384 284.895C173.21 275.16 161.413 267.285 148.526 261.626C161.018 257.9 169.193 267.742 178.654 272.709C184.511 276.641 191.182 279.194 198.167 280.173C205.151 281.153 212.266 280.535 218.977 278.365C226.412 276.003 233.086 271.701 238.312 265.902C232.57 269.174 226.183 271.149 219.598 271.689C213.013 272.229 206.39 271.321 200.193 269.03M263.204 213.614C279.692 199.542 272.711 171.351 272.711 171.351C270.782 180.319 260.954 196.691 258.565 201.703C256.402 207.121 254.861 212.768 253.973 218.535C253.238 221.57 252.457 224.007 252.457 224.007C255.849 220.303 259.486 216.831 263.342 213.614M2.93928 133.779L17.4979 135.067C21.4017 135.389 23.3765 133.871 23.7439 130.192C23.973 128.764 23.7481 127.3 23.101 126.007C22.5529 125.22 21.8152 124.583 20.9561 124.157C20.0971 123.731 19.1446 123.529 18.1868 123.57L4.08744 122.006L2.52596 125.041H1.51558C1.83706 121.96 2.15855 118.925 2.52596 115.844H3.53635C3.85783 116.947 4.13333 118.097 4.40889 119.201L17.8654 120.764C19.209 120.772 20.5272 121.133 21.6878 121.811C22.8485 122.488 23.811 123.46 24.4788 124.627C25.545 126.709 25.9458 129.07 25.6269 131.388C25.0758 137.182 22.0447 140.171 17.1765 139.803L2.52596 138.608L1.01039 141.689H0C0.275558 137.964 0.597003 134.285 0.964414 130.606H1.9289C2.25038 131.618 2.6178 132.675 2.93928 133.733M10.7468 104.991L26.5454 110.141L28.6581 107.796L29.6225 108.072C28.7499 110.739 27.8773 113.36 27.0506 115.982L26.0861 115.66L25.8106 112.395L7.2104 106.37L5.00596 109.038L4.04154 108.716C4.82229 106.37 5.55711 104.117 6.33786 101.633C12.8594 99.288 19.3809 97.0346 25.9025 94.9192L12.6757 90.3204L10.4712 92.7117L9.55269 92.3899C10.4712 89.6766 11.4816 86.9632 12.446 84.25L13.4105 84.6179C13.4105 85.7676 13.4105 86.9173 13.4105 88.021L34.307 95.609C34.0774 96.1608 33.8937 96.7587 33.664 97.3105C25.9943 99.7479 18.3246 102.323 10.7009 105.129M45.0078 62.5897L50.4731 66.5446C49.575 69.1103 48.3558 71.5518 46.8449 73.8107C46.0517 75.2595 44.9463 76.5133 43.609 77.481C42.2717 78.4488 40.736 79.1061 39.1134 79.4056C37.4907 79.705 35.8218 79.6389 34.2279 79.212C32.6339 78.7852 31.1548 78.0084 29.898 76.9379C28.3064 76.0882 26.9342 74.8791 25.8901 73.4064C24.8459 71.9337 24.1584 70.2379 23.8821 68.4531C23.6058 66.6683 23.7484 64.8435 24.2983 63.1234C24.8483 61.4033 25.7906 59.835 27.0506 58.5427C28.6148 56.4965 30.3846 54.6165 32.3321 52.9322L32.7914 52.5643L37.3841 56.0134L36.3278 57.531L31.7351 56.1973C31.1006 56.6037 30.5412 57.1173 30.0818 57.715C28.9616 58.7502 28.1162 60.0482 27.622 61.4922C27.1278 62.9361 27.0002 64.4805 27.2508 65.9861C27.5014 67.4918 28.1223 68.9113 29.0575 70.1167C29.9927 71.3222 31.2128 72.2755 32.6077 72.8909C33.6033 73.7607 34.7746 74.4051 36.0416 74.7802C37.3086 75.1554 38.6415 75.2524 39.9493 75.0647C41.2572 74.877 42.5093 74.409 43.62 73.6926C44.7308 72.9762 45.6741 72.0282 46.3857 70.9135C46.7134 70.4753 46.9479 69.9744 47.0745 69.4418L42.4819 66.0388L39.6345 67.7863L38.8078 67.2345L45.0537 58.6807L45.8805 59.2325L45.0078 62.5897ZM54.9279 59.9223L41.15 45.896L38.0729 47.0918L37.3841 46.402L45.0537 38.9059L45.7886 39.5497L44.5027 42.6309L58.5561 56.9791L63.1487 52.7023L61.6332 48.1035L62.7354 46.9997L66.6851 51.8285C66.6851 51.8285 60.6687 57.577 54.6523 63.7854L53.9176 63.0496L54.9279 59.9223ZM61.8168 40.5614C60.6876 39.2372 59.8672 37.6778 59.4149 35.9964C58.9627 34.3151 58.89 32.5539 59.2022 30.8409C59.5145 29.1279 60.2038 27.506 61.2201 26.0931C62.2363 24.6801 63.5541 23.5116 65.0776 22.6722C66.3241 21.7242 67.7646 21.0642 69.2958 20.7393C70.827 20.4145 72.4109 20.4329 73.9342 20.7934C75.4574 21.1538 76.8822 21.8474 78.1062 22.8242C79.3302 23.8009 80.3233 25.0367 81.0141 26.4431C82.0207 27.8009 82.7363 29.3524 83.1161 31.0002C83.4959 32.6479 83.5317 34.3565 83.2212 36.0187C82.9108 37.681 82.2608 39.2611 81.312 40.6601C80.3632 42.059 79.136 43.2466 77.7074 44.1485C76.4507 45.0275 75.0247 45.6345 73.5204 45.9304C72.0162 46.2264 70.4668 46.2048 68.9714 45.8673C67.4759 45.5297 66.0673 44.8834 64.8354 43.9698C63.6035 43.0562 62.5754 41.8954 61.8168 40.5614ZM65.3073 37.1123C69.1192 42.4929 73.8496 44.2865 77.1563 42.171C80.463 40.0556 80.5089 34.9968 77.1563 29.4783C73.8037 23.9597 69.4866 21.9363 65.491 24.4656C61.4954 26.995 61.4954 31.8697 65.2154 37.1123M92.0364 33.0653L84.2749 14.9002H81.0141L80.6008 13.9804L91.5772 9.38158C92.4857 8.89531 93.4838 8.59969 94.5103 8.51271C95.5368 8.42573 96.5704 8.54929 97.5476 8.87578C98.2728 9.10463 98.9357 9.49737 99.4852 10.0237C100.035 10.5499 100.456 11.1957 100.716 11.911C101.956 14.9922 100.257 17.9814 96.1238 20.0969C100.716 18.3953 104.115 19.361 105.539 22.9021C105.881 23.7961 106.005 24.7589 105.901 25.7106C105.797 26.6623 105.468 27.5756 104.942 28.3746C103.511 30.2547 101.514 31.625 99.2469 32.2836L90.0616 36.3765L89.6942 35.4568L92.0364 33.0653ZM92.0364 21.0626L93.5061 20.4187C94.1335 20.2244 94.712 19.8977 95.2027 19.4605C95.6933 19.0233 96.0846 18.4858 96.3501 17.8843C96.6156 17.2828 96.7492 16.6313 96.7419 15.9737C96.7345 15.3161 96.5865 14.6677 96.3076 14.0723C96.1532 13.4677 95.8628 12.9065 95.4585 12.4315C95.0543 11.9565 94.5469 11.5803 93.9752 11.3318C93.4035 11.0833 92.7826 10.969 92.16 10.9976C91.5374 11.0263 90.9296 11.1971 90.383 11.497L88.3623 12.4628L92.0364 21.0626ZM96.629 31.6397L97.915 31.0419C99.3198 30.6701 100.523 29.7622 101.268 28.5126C101.676 27.5655 101.789 26.5167 101.59 25.5043C101.392 24.4919 100.892 23.5636 100.156 22.8416C99.4196 22.1195 98.4825 21.6377 97.4676 21.4597C96.4527 21.2817 95.4077 21.4157 94.4705 21.8443L92.7712 22.6261L96.629 31.6397ZM115.413 17.8433L114.081 25.1554L117.02 25.8912V26.903L109.075 28.7425V27.7768L111.509 26.1213L116.974 2.06951L118.72 1.74756L131.166 22.4421L134.105 23.224V24.1897L123.772 25.6153V24.6496L126.252 22.9021L122.669 16.4177L115.413 17.8433ZM115.734 16.0039L121.843 14.9002L117.617 7.22014L115.734 16.0039ZM139.478 21.9822V2.34543L136.493 1.01174V0C142.096 0 147.194 0 147.194 0V0.965848L144.163 2.20747V22.4421H149.858L152.154 17.8433H153.624L153.027 24.1437C153.027 24.1437 143.841 23.7298 136.447 24.1437V23.178L139.478 21.9822ZM180.215 28.0068L183.292 23.7298L184.854 24.1897L183.017 29.8002H182.465C179.988 29.8411 177.516 29.5472 175.117 28.9265C173.547 28.6111 172.062 27.9651 170.76 27.0313C169.458 26.0974 168.369 24.897 167.565 23.5097C166.762 22.1225 166.262 20.5801 166.099 18.9848C165.937 17.3894 166.114 15.7776 166.621 14.2563C168.274 6.66828 173.602 3.12721 182.741 5.0587C185.159 5.74576 187.476 6.7509 189.63 8.04789L188.023 13.7964L186.461 13.4746L186.048 8.23188C185.461 7.93881 184.845 7.70766 184.211 7.54209C181.641 6.92062 178.931 7.29554 176.626 8.59158C174.321 9.88763 172.59 12.0088 171.782 14.5294C170.974 17.05 171.148 19.7835 172.269 22.181C173.391 24.5784 175.376 26.4624 177.827 27.4548C178.608 27.6586 179.409 27.782 180.215 27.8228M225.498 47.4136L242.124 39.8256L247.543 45.2982L246.9 46.08L243.731 45.0222L229.953 59.0487L231.469 62.0378L230.78 62.8196C227.152 59.1405 223.615 55.6915 223.615 55.6915L224.258 54.8637L227.244 55.8294L238.22 44.1945L219.849 52.4264L219.161 51.8285L224.672 32.4216L214.66 44.9762L216.038 47.8735L215.349 48.6093L208.552 43.4587L209.24 42.6768L212.364 43.6886L224.855 28.5586L223.386 25.6153L224.075 24.8336L230.458 29.4324L225.498 47.4136ZM245.706 65.165L239.552 69.7638L240.287 72.937L239.506 73.5348C236.429 69.3499 233.076 65.119 233.076 65.119L233.857 64.5211L236.613 66.0848L251.952 54.0358L251.263 50.9547L252.09 50.3108L258.428 58.5887C260.09 60.4147 261.093 62.7467 261.275 65.211C261.28 66.2148 261.04 67.2045 260.575 68.0941C260.111 68.9837 259.437 69.7463 258.611 70.3156C254.983 72.9369 250.482 71.6493 247.176 67.0965L245.706 65.165ZM247.635 65.165C248.312 66.3696 249.433 67.2611 250.758 67.6484C251.549 67.8118 252.364 67.8105 253.155 67.6443C253.945 67.4781 254.692 67.1507 255.351 66.6825C255.972 66.2744 256.507 65.7474 256.925 65.1319C257.342 64.5163 257.635 63.8243 257.785 63.0955C257.877 62.4283 257.823 61.7488 257.624 61.1051C257.426 60.4614 257.089 59.8693 256.637 59.3705L255.213 57.6229L246.716 64.2452L247.635 65.165ZM255.396 81.6746L247.956 82.2265V85.2617L246.992 85.7216C245.155 82.3185 242.905 78.6855 242.905 78.6855L243.823 78.1795L246.165 80.1111L270.736 78.7315L271.609 80.7089L255.121 98.1384V101.173L254.248 101.588C252.228 96.6668 250.299 92.3899 250.299 92.3899L251.217 91.93L253.559 93.8155L258.519 88.5728L255.396 81.6746ZM257.234 81.6746L259.943 87.1933L266.189 81.0309L257.234 81.6746ZM260.816 117.361L266.097 117.913L266.557 119.431L260.724 120.672L260.448 120.167C259.163 118.064 258.145 115.808 257.417 113.452C256.871 111.939 256.658 110.325 256.794 108.721C256.931 107.118 257.413 105.563 258.208 104.164C259.002 102.765 260.09 101.556 261.397 100.618C262.703 99.6813 264.197 99.0391 265.776 98.7361C267.416 98.113 269.174 97.8638 270.922 98.0065C272.671 98.1492 274.365 98.6804 275.883 99.5614C277.4 100.442 278.703 101.651 279.695 103.099C280.688 104.547 281.345 106.199 281.62 107.934C282.25 110.459 282.544 113.057 282.493 115.66L276.66 117.223L276.247 115.66L280.289 112.441C280.279 111.694 280.171 110.952 279.967 110.233C279.791 108.792 279.277 107.414 278.467 106.21C277.657 105.006 276.573 104.011 275.306 103.307C274.038 102.603 272.622 102.209 271.173 102.158C269.724 102.107 268.284 102.4 266.97 103.013C260.954 105.083 258.152 109.129 259.714 114.786C259.945 115.514 260.237 116.222 260.586 116.901L260.816 117.361ZM283.412 134.469L263.525 135.94L262.561 139.987H261.551C261.551 133.549 260.632 127.479 260.632 127.479H261.642L263.158 131.342L283.044 129.824L282.585 124.765L277.487 123.34V121.914L284.238 121.408C285.203 128.451 285.74 135.546 285.846 142.655L279.095 143.161V141.689L283.963 139.482L283.412 134.469ZM191.559 21.6144C192.133 19.9703 193.067 18.4756 194.293 17.2397C195.519 16.0039 197.005 15.0582 198.643 14.4719C200.281 13.8855 202.029 13.6733 203.759 13.8508C205.49 14.0284 207.158 14.5912 208.643 15.4981C210.078 16.1052 211.36 17.0237 212.397 18.1873C213.433 19.351 214.199 20.7307 214.638 22.2267C215.078 23.7228 215.18 25.2978 214.937 26.8381C214.695 28.3785 214.114 29.8458 213.236 31.1339C212.562 32.6871 211.577 34.0856 210.343 35.2436C209.108 36.4016 207.651 37.2945 206.059 37.8674C204.467 38.4403 202.776 38.6811 201.087 38.575C199.399 38.4689 197.751 38.018 196.243 37.2503C194.854 36.5923 193.615 35.6528 192.607 34.4912C191.598 33.3296 190.841 31.9712 190.384 30.5017C189.926 29.0322 189.778 27.4837 189.949 25.954C190.119 24.4242 190.605 22.9466 191.375 21.6144M195.968 22.9481C193.304 28.9265 194.131 33.8932 197.575 35.7327C201.02 37.5722 205.475 35.0429 208.598 29.4324C211.721 23.8219 211.261 18.993 207.036 16.8316C202.811 14.6702 198.631 17.0616 195.968 22.9481Z" fill="white"/>
</svg>
