<svg width="945" height="282" viewBox="0 0 945 282" fill="none" xmlns="http://www.w3.org/2000/svg">
<path d="M162.131 215.42C149.944 206.294 133.472 211.692 120.172 214.53C106.728 217.615 93.4935 221.556 80.5508 226.327C71.5914 229.444 58.2915 235.342 50.1669 226.995C47.7823 224.257 46.4247 220.775 46.3271 217.145C46.1932 210.818 47.1341 204.515 49.1096 198.503C50.779 191.213 52.3928 183.923 53.8397 176.578C56.2326 164.669 58.3472 152.649 59.7941 140.573C62.0835 125.54 62.3454 110.267 60.5731 95.1643C60.1279 92.2706 59.4045 89.5994 58.6811 86.6501C58.3001 84.5394 57.2695 82.6004 55.7331 81.1039C54.1967 79.6074 52.2313 78.6281 50.1114 78.3028C48.5546 77.9894 46.9691 77.8401 45.3812 77.8576C43.6499 77.8849 41.9217 78.015 40.2058 78.2471C33.8911 78.8958 27.7355 80.6278 22.0089 83.3669C14.3072 86.205 6.96673 89.9407 0.139167 94.4965C9.44706 101.182 15.9181 111.107 18.2806 122.321C19.8248 128.936 20.4242 135.737 20.0612 142.521C19.7083 150.114 18.8906 157.677 17.6126 165.17C16.5142 171.02 15.0647 176.8 13.2721 182.476L12.4374 185.314C11.6027 188.097 10.768 190.879 9.93331 193.383C8.70905 197.167 7.48476 201.007 6.42745 204.903C5.98226 206.628 5.53707 208.353 5.03624 210.022C2.38395 218.385 0.739926 227.035 0.139167 235.787C-0.176483 238.448 0.0461033 241.145 0.793842 243.717C1.54158 246.29 2.79909 248.686 4.49161 250.762C6.18413 252.839 8.27708 254.554 10.6459 255.805C13.0147 257.057 15.6112 257.819 18.2806 258.047C22.0624 258.736 25.9001 259.071 29.7441 259.048C35.3366 258.972 40.9162 258.488 46.4385 257.602C52.0034 256.711 57.5682 255.598 63.133 254.541C79.3823 251.313 97.5237 247.084 113.773 252.148C118.692 253.461 123.135 256.147 126.584 259.891C130.033 263.636 132.345 268.285 133.25 273.294C133.25 273.74 133.25 274.24 133.25 274.797L134.363 274.073C135.81 273.183 137.145 272.348 138.425 271.402C149.04 264.181 158.181 255.002 165.359 244.357C167.923 240.415 169.295 235.816 169.31 231.113C169.418 228.069 168.768 225.047 167.418 222.317C166.067 219.587 164.059 217.236 161.575 215.476" fill="#213A8F"/>
<path d="M561.859 145.247C559.908 151.707 555.982 157.393 550.631 161.506C545.281 165.618 538.776 167.95 532.032 168.174C529.498 168.15 526.999 167.587 524.7 166.522C522.401 165.458 520.355 163.917 518.697 162.001C517.039 160.085 515.808 157.839 515.085 155.411C514.361 152.983 514.163 150.429 514.503 147.918C514.802 143.523 516.006 139.236 518.039 135.328C520.072 131.419 522.89 127.972 526.318 125.203C529.745 122.434 533.707 120.403 537.955 119.237C542.204 118.07 546.648 117.794 551.008 118.425C553.294 118.647 555.495 119.409 557.43 120.647C559.365 121.885 560.978 123.565 562.138 125.548C564.203 131.982 564.026 138.926 561.637 145.247M366.868 109.076C364.903 123.694 363.714 138.405 363.306 153.149C363.512 156.964 362.826 160.775 361.303 164.279C360.017 166.627 358.086 168.558 355.738 169.844C352.826 171.427 349.515 172.123 346.212 171.847C342.909 171.57 339.759 170.332 337.151 168.285C330.585 162.721 329.083 153.65 329.083 145.191C329.083 125.659 334.648 110.189 336.707 90.7675C347.836 90.7675 359.522 90.0441 370.819 89.2651C369.261 96.7776 367.925 100.84 366.868 109.076ZM586.011 113.138C573.768 90.0998 535.927 91.8248 516.061 101.229C505.479 106.611 496.756 115.044 491.019 125.436C484.676 136.186 481.243 148.404 481.058 160.884C480.973 162.349 480.973 163.816 481.058 165.281C476.718 172.515 468.983 179.137 461.971 173.962C459.996 172.159 458.782 169.672 458.576 167.006C456.239 153.706 460.468 140.128 464.141 127.551C467.48 116.867 456.684 110.189 447.725 108.352C432.756 105.347 422.961 116.366 415.95 128.219C411.582 135.602 407.858 143.347 404.82 151.369C402.928 156.321 400.591 165.114 393.69 164.613C391.13 164.613 391.242 160.94 392.689 151.869C394.136 142.799 395.36 130.5 397.196 116.811C398.699 105.681 399.978 97.8348 401.537 86.5382L413.111 85.2584C440.101 82.1421 466.923 78.0798 494.469 76.9669C514.515 75.9395 534.613 77.115 554.402 80.4726C559.466 81.4186 570.262 83.7001 577.775 86.0374C585.287 88.3746 599.478 80.4726 583.34 76.6885C575.938 75.0191 567.647 73.0158 562.138 71.9028C514.781 62.4426 467.925 70.3447 421.626 73.294C415.505 73.6836 409.328 74.0174 403.206 74.2957C403.651 72.0697 404.152 70.1776 404.709 68.2856C405.611 65.2473 406.354 62.164 406.935 59.0481C407.615 56.3488 407.445 53.5053 406.449 50.9059C405.453 48.3064 403.68 46.0776 401.37 44.5238C397.808 42.0197 391.409 37.7347 387.012 38.959C382.616 40.1833 380.279 49.1426 379.11 53.2049C376.94 60.7731 374.937 67.896 373.212 74.9077C361.414 74.9077 349.617 74.9078 337.82 74.24C338.153 71.235 338.376 68.9533 338.654 66.8944C339.099 63.3885 339.266 59.7715 339.879 56.2657C343.44 36.6219 317.285 24.3235 302.984 36.7331C296.306 42.2979 301.704 46.5271 304.208 52.4815C304.596 56.1812 304.596 59.9114 304.208 63.6111C304.208 64.8354 303.596 67.6178 303.095 71.2349C291.965 69.8994 280.502 68.1743 269.261 65.6701C241.771 60.1053 212.722 50.0887 199.812 28.8867C192.856 17.4788 191.131 2.78762 171.097 0.339101C157.018 -1.33035 151.342 3.34409 150.229 10.4114C146.389 35.7314 179.278 59.215 206.99 71.1794C231.288 80.8758 256.958 86.6971 283.062 88.4304C288.626 88.9312 294.803 89.3764 300.591 89.6546C299.088 101.341 297.53 109.131 297.419 110.634C297.015 122.534 295.975 134.404 294.303 146.193C293.301 154.819 280.056 164.334 273.212 168.452C266.958 172.021 259.865 173.856 252.665 173.768C245.465 173.68 238.419 171.672 232.255 167.952C227.765 164.859 224.456 160.336 222.869 155.121C221.283 149.905 221.511 144.306 223.518 139.237C224.923 134.207 227.645 129.643 231.4 126.014C235.156 122.385 239.812 119.823 244.887 118.592H245.944V119.371C245.221 123.711 240.379 124.379 238.098 127.273C236.644 129.176 235.82 131.486 235.741 133.879C235.661 136.273 236.329 138.632 237.653 140.628C238.852 142.389 240.474 143.821 242.369 144.793C244.265 145.765 246.374 146.247 248.504 146.193C250.782 146 252.999 145.354 255.025 144.293C257.051 143.232 258.844 141.779 260.301 140.016C263.731 136.085 266.098 131.343 267.18 126.239C268.261 121.136 268.019 115.841 266.478 110.857C265.236 106.351 262.702 102.308 259.189 99.2261C254.058 95.3633 247.66 93.575 241.27 94.2177C208.549 96.3323 182.449 120.372 182.449 153.038C182.449 182.698 202.872 197.556 235.593 196.833C247.032 196.519 258.289 193.892 268.685 189.11C279.081 184.328 288.401 177.49 296.083 169.009C301.982 187.818 308.27 198.391 330.251 199.615C336.593 199.814 342.896 198.563 348.681 195.96C354.467 193.356 359.583 189.468 363.64 184.591C367.702 194.162 371.153 198.725 386.233 199.615C408.826 201.007 417.007 163.945 423.462 138.848C422.938 149.327 423.087 159.829 423.907 170.289C425.799 196.944 440.602 198.892 449.171 199.615C463.656 199.113 477.718 194.605 489.795 186.594C497.872 194.571 508.665 199.202 520.012 199.56C529.396 200.397 538.84 198.887 547.495 195.166C556.151 191.446 563.745 185.631 569.594 178.247C581.459 164.394 588.043 146.791 588.181 128.553C588.21 125.793 587.986 123.036 587.513 120.317C587.047 117.487 586.146 114.746 584.842 112.192" fill="#213A8F"/>
<path d="M641.322 181.919C635.838 181.707 630.477 180.237 625.652 177.622C620.827 175.007 616.669 171.317 613.498 166.838C620.009 158.101 626.854 146.304 632.53 137.233C637.482 150.199 654.177 159.492 654.789 169.342C655.401 176.91 650.393 181.752 641.434 181.919M677.716 111.468C677.716 94.4396 635.98 87.6506 630.972 103.176C629.782 107.271 629.091 111.493 628.913 115.753L607.432 149.142C606.764 146.248 605.763 143.911 602.201 143.577C601.45 143.381 600.667 143.344 599.901 143.469C599.134 143.594 598.403 143.878 597.753 144.303C597.103 144.727 596.549 145.283 596.127 145.934C595.705 146.586 595.423 147.318 595.301 148.085C592.574 175.13 613.053 200.95 646.665 200.95C674.823 200.95 688.568 185.814 688.568 168.007C688.568 153.872 671.038 143.8 671.038 129.053C671.038 119.76 677.716 118.814 677.716 111.635" fill="#213A8F"/>
<path d="M124.628 281.751C119.898 277.689 115.167 266.615 93.6872 264.389C77.3822 262.664 64.3051 265.836 51.673 267.06C49.2778 267.3 46.859 267.073 44.55 266.392C43.3814 265.391 76.1025 257.711 92.0735 258.324C122.346 259.548 128.022 284.756 124.628 281.751Z" fill="#213A8F"/>
<path d="M922.622 50.644C921.4 56.8837 918.472 62.6626 914.163 67.3385C908.598 74.3501 893.573 86.5927 881.943 84.7007C870.312 82.8086 860.018 66.3367 856.957 57.8782C854.416 52.1324 853.493 45.8022 854.286 39.57C854.607 37.3512 855.424 35.2332 856.676 33.3738C857.929 31.5143 859.585 29.9611 861.52 28.8298C864.171 27.6009 867.086 27.054 870.002 27.2387C872.917 27.4233 875.74 28.3337 878.215 29.8871C881.24 31.7061 883.764 34.2498 885.56 37.2884C886.562 38.6796 887.508 40.0708 888.398 41.5733V42.0184L888.843 41.6845C890.179 40.6272 891.515 39.5699 892.906 38.5682C895.56 36.2625 898.759 34.6727 902.199 33.9495C905.079 33.2202 908.098 33.2467 910.964 34.0266C913.83 34.8065 916.447 36.3134 918.56 38.4013C920.048 40.0781 921.132 42.0731 921.73 44.2338C922.328 46.3944 922.424 48.6633 922.01 50.8666M871.926 16.3089C873.614 16.0755 875.331 16.4503 876.768 17.3663C880.404 19.4566 883.153 22.7999 884.503 26.7708C884.855 27.8132 885.061 28.8995 885.115 29.9985C884.478 29.0259 883.711 28.1457 882.834 27.383C880.671 25.3577 878.086 23.8371 875.265 22.9311C873.373 22.319 869.7 21.9852 869.7 19.3697C869.686 18.7018 869.882 18.0463 870.262 17.4967C870.642 16.9471 871.185 16.5314 871.815 16.3089M887.452 1.2283C877.194 1.2283 867.167 4.27011 858.638 9.96902C850.109 15.6679 843.461 23.768 839.536 33.2449C835.611 42.7218 834.583 53.15 836.584 63.2107C838.586 73.2713 843.525 82.5127 850.779 89.766C858.032 97.0194 867.273 101.959 877.334 103.96C887.395 105.961 897.823 104.934 907.3 101.009C916.777 97.0833 924.877 90.4357 930.576 81.9067C936.275 73.3777 939.316 63.3503 939.316 53.0925C939.324 46.2796 937.987 39.532 935.383 33.2362C932.78 26.9405 928.96 21.2202 924.142 16.4027C919.325 11.5852 913.604 7.7651 907.308 5.16128C901.013 2.55745 894.265 1.22098 887.452 1.2283Z" fill="#213A8F"/>
<path d="M921.621 109.186C923.791 112.97 925.906 115.03 928.243 118.702C928.682 119.243 928.953 119.901 929.022 120.594C929.022 122.987 925.906 122.486 924.403 122.319C921.174 121.709 917.871 121.597 914.609 121.986C913.719 122.134 912.879 122.497 912.16 123.043C911.209 123.947 910.583 125.14 910.38 126.437C909.873 128.237 909.164 129.973 908.265 131.613C907.969 132.191 907.539 132.691 907.01 133.069C906.482 133.447 905.87 133.693 905.227 133.785C904.583 133.878 903.927 133.815 903.313 133.602C902.699 133.388 902.145 133.03 901.698 132.559L892.35 122.709C891.533 121.647 890.404 120.869 889.122 120.483C887.991 120.397 886.864 120.69 885.917 121.314C884.97 121.939 884.258 122.86 883.891 123.933C880.886 129.999 878.326 135.341 874.765 141.24C873.374 143.633 871.927 143.299 870.202 141.629C869.367 140.85 868.588 140.071 867.809 139.236C865.694 137.01 863.746 134.562 861.632 132.28C860.862 131.505 859.829 131.048 858.738 131.001C855.733 131.001 851.393 132.614 848.388 132.614C846.938 132.748 845.483 132.437 844.214 131.724C842.378 130.388 843.713 127.829 844.214 126.159C847.181 119.687 850.918 113.595 855.344 108.018C855.647 107.732 855.888 107.387 856.053 107.004C856.218 106.621 856.304 106.209 856.304 105.792C856.304 105.375 856.218 104.963 856.053 104.58C855.888 104.197 855.647 103.852 855.344 103.566C853.396 101.952 851.114 104.679 849.779 105.903C848.443 107.127 846.162 109.465 844.214 111.468C837.647 118.421 832.185 126.341 828.02 134.952C827.13 136.899 826.351 139.403 828.354 140.906C830.357 142.408 835.477 142.297 838.76 142.353H848.221C851.057 142.183 853.904 142.408 856.679 143.021C858.015 143.466 858.849 144.746 859.795 145.747L863.412 149.587C864.358 150.533 865.193 151.535 866.139 152.481C867.158 153.648 868.235 154.762 869.367 155.82C870.441 156.713 871.811 157.17 873.207 157.1C876.545 156.71 877.881 152.926 879.217 150.422C881.498 146.137 883.724 141.796 885.95 137.456C886.283 136.822 886.777 136.288 887.383 135.906C887.989 135.525 888.685 135.311 889.4 135.285C890.19 135.317 890.961 135.53 891.655 135.906C892.35 136.282 892.949 136.812 893.407 137.456L897.803 142.186C899.07 143.938 900.679 145.415 902.533 146.526C903.077 146.8 903.677 146.943 904.286 146.943C904.895 146.943 905.495 146.8 906.039 146.526C907.088 145.721 907.897 144.643 908.376 143.41L914.609 131.279C915.041 130.233 915.708 129.3 916.557 128.552C917.17 128.112 917.865 127.801 918.602 127.639C919.338 127.476 920.1 127.465 920.841 127.606C926.03 128.585 931.315 128.958 936.59 128.719C939.261 128.329 940.374 127.662 939.261 125.102C938.084 122.733 936.606 120.526 934.865 118.535C932.171 115.1 929.232 111.865 926.072 108.852C925.126 107.962 922.344 104.902 920.897 106.348C919.45 107.795 920.897 108.24 921.342 109.409" fill="#213A8F"/>
<path d="M936.032 95.4975H937.701C938.759 95.4975 939.259 95.887 939.259 96.666C939.253 96.8319 939.212 96.9947 939.14 97.1444C939.069 97.2941 938.967 97.4276 938.842 97.5369C938.717 97.6462 938.572 97.7291 938.414 97.7803C938.256 97.8314 938.089 97.85 937.924 97.8348H936.032V95.4975ZM940.484 96.666C940.478 96.3441 940.405 96.027 940.271 95.7345C940.136 95.442 939.942 95.1805 939.702 94.9663C939.462 94.752 939.18 94.5898 938.874 94.4897C938.568 94.3896 938.244 94.3537 937.924 94.3844H935.309L934.863 94.8852V101.007L935.309 101.507L935.754 101.007V98.9476H937.368L938.481 101.174L938.925 101.452H939.371H939.705V101.007L938.592 99.0033C939.057 98.8609 939.465 98.5735 939.755 98.1831C940.045 97.7926 940.203 97.3195 940.206 96.833" fill="#213A8F"/>
<path d="M942.936 97.9457C942.936 99.0463 942.61 100.122 941.998 101.037C941.387 101.952 940.517 102.666 939.501 103.087C938.484 103.508 937.365 103.618 936.285 103.403C935.206 103.189 934.214 102.659 933.436 101.881C932.658 101.102 932.128 100.111 931.913 99.0314C931.698 97.9519 931.809 96.8329 932.23 95.8161C932.651 94.7992 933.364 93.9301 934.279 93.3186C935.194 92.7071 936.27 92.3808 937.371 92.3808C938.847 92.3808 940.262 92.967 941.306 94.0106C942.349 95.0543 942.936 96.4698 942.936 97.9457ZM937.371 91.2678C936.035 91.2568 934.725 91.6439 933.609 92.3795C932.494 93.1151 931.622 94.166 931.105 95.3986C930.589 96.6312 930.451 97.9897 930.709 99.301C930.967 100.612 931.609 101.817 932.554 102.762C933.499 103.707 934.704 104.35 936.015 104.608C937.327 104.866 938.685 104.728 939.918 104.211C941.15 103.695 942.202 102.823 942.937 101.707C943.673 100.591 944.06 99.2821 944.049 97.9457C944.034 96.1791 943.326 94.489 942.077 93.2398C940.828 91.9906 939.138 91.2823 937.371 91.2678Z" fill="#213A8F"/>
<path d="M150.112 143.021C146.885 158.38 137.48 170.511 119.617 170.511C115.275 170.48 111.105 168.813 107.938 165.842C104.771 162.871 102.841 158.815 102.533 154.484C102.364 152.987 102.364 151.475 102.533 149.977C102.864 145.499 104.096 141.135 106.153 137.144C108.21 133.153 111.051 129.618 114.505 126.75C117.96 123.882 121.958 121.741 126.259 120.454C130.56 119.167 135.077 118.76 139.539 119.259C141.282 119.344 142.987 119.789 144.549 120.567C146.11 121.344 147.494 122.436 148.613 123.774C149.732 125.113 150.561 126.668 151.049 128.343C151.537 130.018 151.673 131.775 151.448 133.505C151.34 136.705 150.949 139.89 150.279 143.021M188.176 190.099C186.067 187.839 183.778 185.755 181.331 183.867C167.029 168.73 174.764 149.754 175.766 131.835C176.275 124.308 174.553 116.797 170.814 110.244C158.293 89.821 123.401 93.1599 104.926 101.897C94.1853 107.33 85.3394 115.885 79.5503 126.438C73.9201 137.51 71.1102 149.801 71.37 162.219C71.9822 184.479 88.4542 196.777 109.934 199.559C118.824 200.579 127.828 199.822 136.423 197.333C144.37 194.591 151.506 189.904 157.18 183.7H157.68L158.237 184.534C159.505 186.975 161.137 189.208 163.078 191.156C165.561 193.43 168.59 195.021 171.871 195.775C174.811 196.442 177.849 196.555 180.83 196.109C183.543 196.027 186.172 195.157 188.398 193.605C188.6 193.42 188.763 193.197 188.878 192.949C188.993 192.7 189.056 192.432 189.066 192.158C189 191.404 188.71 190.687 188.232 190.099" fill="#213A8F"/>
<path d="M774.265 143.021C771.037 158.38 761.577 170.511 743.769 170.511C739.421 170.481 735.244 168.816 732.069 165.846C728.893 162.876 726.951 158.82 726.63 154.484C726.489 152.985 726.489 151.476 726.63 149.977C726.961 145.499 728.192 141.135 730.249 137.144C732.306 133.153 735.147 129.618 738.602 126.75C742.057 123.882 746.054 121.741 750.356 120.454C754.657 119.167 759.174 118.76 763.636 119.259C765.376 119.343 767.08 119.789 768.639 120.566C770.198 121.344 771.579 122.437 772.693 123.777C773.808 125.116 774.632 126.673 775.113 128.347C775.594 130.022 775.722 131.778 775.489 133.505C775.372 136.701 775 139.884 774.376 143.021M812.272 190.099C810.15 187.853 807.862 185.769 805.428 183.867C791.126 168.73 798.861 149.754 799.863 131.835C800.427 124.304 798.7 116.777 794.91 110.244C782.389 89.821 747.554 93.1599 729.023 101.897C718.292 107.344 709.45 115.895 703.647 126.438C698.03 136.207 695.218 147.337 695.522 158.602C695.846 168.959 699.945 178.84 707.048 186.384C714.151 193.928 723.768 198.614 734.086 199.559C742.874 200.494 751.759 199.7 760.241 197.222C768.179 194.46 775.31 189.776 780.998 183.588H781.443L782.055 184.423C783.303 186.862 784.917 189.095 786.841 191.045C789.344 193.321 792.391 194.912 795.689 195.664C798.61 196.33 801.63 196.444 804.593 195.998C807.307 195.926 809.94 195.055 812.161 193.494C812.363 193.309 812.526 193.086 812.641 192.837C812.755 192.589 812.819 192.32 812.829 192.047C812.786 191.297 812.514 190.578 812.05 189.988" fill="#213A8F"/>
</svg>
