<svg width="1498" height="863" viewBox="0 0 1498 863" fill="none" xmlns="http://www.w3.org/2000/svg">
<path d="M161.629 181.813C196.864 181.813 214.206 166.507 214.206 136.36C214.206 106.213 196.864 90.9485 161.629 90.9485H117.702V181.813H161.629ZM15.6016 3.73047H159.764C265.977 3.73047 321.098 49.1415 321.098 136.444C321.098 223.747 266.486 269.201 159.764 269.201H117.872V379.443H15.6016V3.73047Z" fill="white"/>
<path d="M360.746 259.916V94.002H459.794V252.284C459.794 288.027 470.013 301.808 493.503 301.808C508.507 301.291 522.897 295.718 534.334 285.992V94.002H633.382V379.401H559.902L546.588 354.384C522.57 374.57 492.186 385.609 460.812 385.549C393.437 385.549 360.746 344.675 360.746 259.916Z" fill="white"/>
<path d="M687.525 290.57V3.60205H786.743V281.878C786.743 296.675 792.34 302.315 805.611 302.315C807.18 302.315 821.469 302.315 822.996 301.806V377.364C806.963 382.379 790.27 384.966 773.472 385.038C710.676 385.038 687.695 360.022 687.695 290.57" fill="white"/>
<path d="M848.354 366.128V287.008C879.928 301.95 914.509 309.449 949.437 308.93C977.548 308.93 989.802 304.69 989.802 292.605C989.802 283.404 982.636 277.299 957.111 272.168L927.431 266.571C878.924 256.862 849.286 229.81 849.286 184.356C849.286 124.105 900.846 87.8525 985.604 87.8525C1021.35 87.8525 1060.14 94.5094 1083.13 107.272L1068.84 181.304C1044.23 169.857 1017.37 164.062 990.226 164.343C965.718 164.343 951.387 169.431 951.387 181.685C951.387 190.165 959.061 195.974 984.078 201.105L1013.76 207.21C1063.83 216.92 1091.9 243.463 1091.9 288.916C1091.9 351.712 1037.8 385.42 953.041 385.42C914.88 385.42 871.843 378.255 848.354 366.001" fill="white"/>
<path d="M1184.5 63.0074C1170.5 62.8245 1156.68 66.2719 1144.39 73.014C1133.17 79.4517 1123.56 88.3737 1116.32 99.0965C1109.07 109.819 1104.37 122.059 1102.59 134.877C1095.29 169.306 1106.11 208.06 1117.89 240.327C1135.66 288.833 1194.77 383.387 1261.76 394.453C1266.59 395.256 1271.49 395.653 1276.39 395.641C1340.84 395.641 1417.5 332.04 1447.56 294.812C1469.1 268.057 1491.87 234.815 1496.02 199.877C1498.46 187.154 1497.95 174.042 1494.53 161.547C1491.11 149.052 1484.88 137.506 1476.31 127.796C1459.05 108.419 1432.72 99.8113 1406.22 99.8113C1398.1 99.8156 1390.01 100.611 1382.05 102.186C1362.23 106.447 1343.79 115.601 1328.41 128.813C1320.48 134.537 1312.77 140.601 1305.13 146.876L1302.63 148.911L1302.29 149.208L1302.04 148.826L1300.34 146.113C1295.13 137.633 1289.79 129.492 1284.1 121.52C1273.76 104.049 1259.17 89.4665 1241.7 79.1197C1224.29 68.8925 1204.53 63.342 1184.34 63.0074M1184.34 99.7264C1198.09 100.061 1211.54 103.914 1223.39 110.92C1235.67 118.355 1245.88 128.767 1253.07 141.194L1253.58 142.042L1254.17 142.848C1258.96 149.59 1263.84 157.01 1269.18 165.575L1270.88 168.288L1271.09 168.67L1293.22 204.244L1325.61 177.659L1325.91 177.404L1328.41 175.327C1336.21 168.967 1343.25 163.497 1349.91 158.663L1350.72 158.07L1351.48 157.476C1366.48 143.929 1386.01 136.487 1406.22 136.615C1424.45 136.615 1440.14 142.339 1448.92 152.346C1453.69 157.832 1457.17 164.327 1459.09 171.346C1461 178.366 1461.31 185.727 1459.98 192.881L1459.73 194.195V195.552C1456.46 222.731 1435.01 252.072 1419.15 271.873C1390.45 307.49 1323.16 359.049 1276.56 359.049C1273.72 359.037 1270.88 358.81 1268.08 358.37C1223.51 350.993 1170.85 277.385 1152.75 227.861C1144.27 204.074 1133.16 169.391 1138.84 142.636L1139.14 141.321V139.965C1140.17 132.756 1142.83 125.875 1146.91 119.839C1150.98 113.803 1156.37 108.768 1162.67 105.111C1169.42 101.48 1177.01 99.6684 1184.67 99.8536" fill="#00A7E2"/>
<path d="M1214.61 0.0424421C1212.61 0.0204552 1210.63 0.30641 1208.72 0.890378C1205.12 2.19105 1202.01 4.56318 1199.8 7.6868C1197.6 10.8104 1196.4 14.5353 1196.38 18.3594C1197.27 33.5389 1217.03 35.3197 1228.01 39.0085C1244.19 44.2752 1259.05 52.9504 1271.6 64.4489C1276.56 68.9549 1280.98 74.0364 1284.74 79.586C1284.4 73.2588 1283.19 67.0088 1281.14 61.0145C1273.47 38.0595 1257.54 18.7756 1236.45 6.91133C1229.84 2.86833 1222.34 0.496159 1214.61 0" fill="#00A7E2"/>
<path d="M186.86 477.94C190.382 475.424 194.129 473.238 198.053 471.411C198.504 471.108 199.023 470.922 199.564 470.87C200.104 470.818 200.649 470.902 201.149 471.114C201.506 471.438 201.783 471.84 201.96 472.288C202.136 472.737 202.207 473.22 202.166 473.7C201.916 479.548 200.052 485.213 196.781 490.067C182.214 514.877 162.527 536.299 139.032 552.905C138.395 553.444 137.613 553.783 136.784 553.88C136.445 553.88 136.106 553.541 136.106 552.226C142.509 526.404 162.946 494.604 186.987 477.94M296.084 610.951C296.084 597.637 288.621 561.385 285.696 537.089C285.06 532.849 283.448 518.348 283.448 516.398C283.423 513.558 283.636 510.722 284.084 507.918C286.671 493.035 301.553 474.591 303.843 474.591C305.298 474.753 306.697 475.246 307.932 476.032C309.166 476.819 310.205 477.878 310.966 479.128C312.343 481.84 313.11 484.822 313.214 487.862C312.802 493.241 310.893 498.396 307.702 502.745C307.165 503.508 306.843 504.401 306.769 505.331C306.67 507.319 307.059 509.301 307.902 511.104C308.744 512.907 310.015 514.477 311.602 515.677C314.902 518.128 318.826 519.597 322.923 519.917C324.577 519.917 324.874 519.578 327.46 516.355C333.576 508.733 336.898 499.246 336.873 489.473C336.873 482.986 335.262 473.276 330.725 468.273C323.899 461.15 316.775 456.613 298.967 456.613C292.819 456.613 279.548 462.422 270.177 477.304C263.213 489.366 259.216 502.911 258.517 516.822C258.517 523.309 264.326 571.943 268.863 593.143C269.744 596.428 270.284 599.796 270.474 603.192C270.388 603.962 270.001 604.666 269.397 605.151C268.793 605.636 268.021 605.862 267.251 605.778C265.64 605.778 264.029 605.142 260.764 602.217C251.054 593.482 247.153 581.016 239.564 571.137C238.891 570.196 238.076 569.367 237.147 568.678C239.149 566.578 241.258 564.583 243.465 562.699C244.072 562.124 244.535 561.413 244.815 560.624C245.095 559.836 245.184 558.992 245.076 558.162C245.256 556.756 245.356 555.34 245.373 553.922C245.373 550.7 240.878 547.435 238.928 547.435C236.568 547.439 234.28 548.247 232.44 549.725C213.021 562.021 199.41 579.405 177.065 591.489C162.522 599.249 157.646 600.563 152.133 600.563C148.695 600.64 145.295 599.837 142.254 598.231C140.105 596.608 138.308 594.564 136.974 592.224C135.64 589.884 134.797 587.297 134.495 584.621C134.495 583.645 134.834 583.009 136.445 582.034C163.963 566.812 189.234 538.658 211.579 513.387C215.764 508.855 219.251 503.725 221.925 498.165C226.244 491.102 228.804 483.104 229.387 474.845C229.387 462.125 222.561 456.062 218.999 454.79C209.842 451.157 199.827 450.261 190.17 452.211C180.514 454.16 171.63 458.871 164.599 465.771C156.416 474.548 148.487 483.537 141.279 492.865C141.002 492.444 140.69 492.047 140.346 491.678C137.273 488.574 133.573 486.163 129.493 484.605C125.412 483.048 121.046 482.38 116.687 482.647C115.379 482.693 114.082 482.907 112.828 483.283C101.168 487.141 85.6069 496.215 67.7986 509.826C65.2122 512.073 63.9402 512.412 63.5586 512.412C63.1769 512.412 62.5833 512.073 62.5833 511.14C62.9228 509.378 63.3617 507.637 63.8977 505.925C65.1223 502.391 65.7667 498.683 65.8058 494.943C66.0168 488.55 64.3352 482.237 60.972 476.796C57.9643 474.344 54.164 473.078 50.2871 473.234C42.8246 473.234 37.5669 477.771 37.5669 480.357C37.5669 482.944 40.4926 485.869 40.4926 487.82C40.4926 488.456 40.1534 490.067 39.8142 492.993C34.6413 518.899 25.5675 543.153 17.5114 567.787C13.6105 580.084 0 590.769 0 601.708C0.717296 606.347 2.86682 610.647 6.14802 614.004C8.43765 616.591 10.6849 620.491 15.8578 620.788C18.1053 620.579 20.1928 619.535 21.7091 617.863C23.9564 616.251 27.518 612.054 29.8077 602.344C41.1286 554.728 76.1091 526.023 111.387 509.402C112.984 508.571 114.758 508.135 116.559 508.13C120.537 508.748 124.453 509.713 128.262 511.013C124.7 510.292 112.828 541.117 111.556 544.637C107.302 556.03 106.39 568.401 108.927 580.296C110.2 588.991 113.69 597.212 119.061 604.167C125.046 610.344 132.394 615.034 140.516 617.863C146.092 620.505 152.122 622.059 158.282 622.442C171.383 622.696 181.687 613.962 191.99 607.305C194.025 605.948 220.78 588.564 219.551 586.656C230.077 604.491 245.929 618.578 264.877 626.936C267.474 627.805 270.194 628.249 272.933 628.251C281.71 628.251 287.519 622.399 293.37 616.591C294.165 615.842 294.803 614.943 295.247 613.946C295.691 612.949 295.933 611.873 295.957 610.782" fill="white"/>
<path d="M422.099 545.103C421.124 549.003 408.785 581.058 398.142 591.107C397.829 591.504 397.429 591.825 396.974 592.045C396.519 592.265 396.019 592.379 395.514 592.379C387.458 592.379 377.069 564.861 377.069 557.738C376.651 554.439 377.466 551.102 379.359 548.367C392.362 526.417 410.038 507.599 431.13 493.246C431.819 492.82 432.61 492.586 433.42 492.568C433.717 492.568 434.734 492.568 434.734 493.543C434.734 494.519 434.056 508.426 422.014 545.018M454.959 479.933C452.016 477.423 448.696 475.391 445.122 473.912C415.781 460.471 396.234 490.067 379.274 509.74C378.596 510.376 377.324 511.988 376.688 511.988C376.052 511.988 376.688 510.716 376.984 509.74C381.225 493.247 387.373 479.297 387.373 465.686C387.373 462.124 381.861 459.241 376.688 459.241C372.395 459.681 368.216 460.887 364.349 462.803C362.441 463.439 361.466 463.778 360.491 469.248C347.474 543.237 315.885 614.131 290.318 684.431C287.858 691.215 285.526 699.399 289.894 705.165C294.261 710.932 301.893 710.932 308.55 709.914C310.319 709.764 312.009 709.117 313.426 708.048C314.68 706.533 315.436 704.667 315.588 702.706C323.566 660.332 338.236 619.499 359.049 581.737C359.473 581.016 360.024 580.168 360.83 580.041C361.635 579.913 362.95 581.101 363.501 582.203C367.827 591.654 374.199 600.025 382.157 606.711C387.625 610.972 394.238 613.511 401.153 614.004C409.379 614.385 412.771 610.951 418.113 605.184C428.079 593.767 436.075 580.77 441.773 566.727C450.931 545.951 459.072 523.945 461.319 501.175C462.39 494.424 460.794 487.521 456.867 481.926C456.29 481.221 455.667 480.555 455.002 479.933" fill="white"/>
<path d="M814.263 516.311C820.379 508.689 823.701 499.202 823.676 489.429C823.676 482.942 822.065 473.232 817.528 468.229C810.702 461.106 803.578 456.569 785.77 456.569C779.622 456.569 766.35 462.378 756.98 477.26C750.016 489.322 746.019 502.867 745.32 516.778C745.32 523.265 751.129 571.899 755.665 593.099C756.547 596.384 757.087 599.752 757.277 603.148C757.181 603.913 756.791 604.611 756.189 605.094C755.588 605.577 754.822 605.806 754.054 605.734C752.443 605.734 750.832 605.098 747.567 602.173C737.857 593.438 733.956 580.972 726.367 571.093C723.441 567.192 720.558 566.556 714.07 566.556C711.004 566.808 708.134 568.163 705.99 570.369C703.846 572.575 702.574 575.484 702.41 578.556C702.747 580.276 703.409 581.917 704.361 583.389C715.046 601.198 730.267 618.031 751.637 626.765C754.248 627.639 756.983 628.082 759.736 628.08C768.47 628.08 774.279 622.228 780.131 616.419C781.714 614.892 782.641 612.809 782.717 610.611C782.717 597.297 775.254 561.044 772.329 536.749C771.693 532.508 770.082 517.965 770.082 516.057C770.766 501.182 777.017 487.107 787.593 476.624C788.576 475.375 790.004 474.554 791.579 474.335C792.72 474.461 793.791 474.951 794.632 475.734C806.758 485.91 793.402 494.263 793.402 505.033C793.311 507.02 793.703 508.999 794.545 510.801C795.387 512.603 796.653 514.174 798.236 515.379C801.552 517.828 805.489 519.298 809.599 519.619C811.21 519.619 811.507 519.279 814.094 516.057" fill="white"/>
<path d="M850.345 586.23C845.989 590.648 840.504 593.786 834.488 595.303C828.679 595.303 827.364 590.427 827.364 586.569C827.364 577.156 838.049 558.076 851.66 541.539C870.104 519.194 894.06 501.386 924.504 485.231C927.632 483.551 931.035 482.445 934.553 481.966C935.471 481.891 936.395 482.001 937.271 482.288C938.146 482.575 938.955 483.034 939.65 483.639C940.345 484.243 940.913 484.98 941.319 485.807C941.725 486.634 941.962 487.534 942.016 488.454C942.072 490.225 941.484 491.958 940.362 493.33C936.676 496.968 933.522 501.107 930.992 505.626C914.455 536.366 880.492 558.076 850.43 586.187M929.465 591.063C929.779 581.302 931.303 571.617 934.002 562.231C939.853 538.868 953.718 516.947 968.474 498.206C971.23 494.729 974.07 489.726 971.06 486.376C968.049 483.026 964.276 484.722 960.926 483.408C957.577 482.094 955.16 477.599 952.828 474.122C933.959 446.18 890.668 474.546 871.8 488.411C853.311 501.486 837.482 517.962 825.159 536.96C817.23 548.79 809.089 561.595 806.249 575.757C802.857 592.929 817.188 617.818 836.608 618.157C842.211 617.762 847.603 615.857 852.211 612.645C862.721 606.485 872.655 599.389 881.891 591.445C886.725 587.205 897.919 571.262 904.618 571.262C905.89 571.262 905.89 571.601 905.89 572.873C905.06 578.233 904.635 583.647 904.618 589.07C904.424 598.645 906.304 608.149 910.13 616.928C912.038 621.168 919.162 623.415 924.038 623.415C926.119 623.14 928.174 622.7 930.186 622.101C935.698 621.465 936.97 618.2 936.97 617.564C936.908 616.874 936.691 616.207 936.334 615.613C931.754 608.364 929.396 599.933 929.55 591.36" fill="white"/>
<path d="M1246.2 478.11C1248.14 476.403 1250.31 474.976 1252.64 473.87C1262.18 467.509 1262.91 476.074 1259.05 483.791C1251.37 498.408 1241.62 511.833 1230.09 523.648C1224.53 529.499 1218.68 535.096 1212.66 540.608C1208.42 544.382 1201.34 553.328 1195.7 553.795C1195.46 553.341 1195.35 552.824 1195.4 552.311C1202.53 523.521 1225.08 496.936 1246.28 478.194M1298.39 547.901C1295.36 548.132 1292.47 549.303 1290.13 551.251C1271.64 563.971 1256.5 581.186 1236.53 591.828C1221.99 599.587 1217.11 600.902 1211.6 600.902C1208.1 600.909 1204.65 600.019 1201.59 598.315C1199.44 596.696 1197.63 594.654 1196.29 592.314C1194.95 589.974 1194.1 587.385 1193.79 584.705C1193.79 583.73 1194.13 583.094 1195.74 582.118C1223.26 566.897 1248.53 538.743 1270.88 513.472C1275.06 508.939 1278.55 503.809 1281.22 498.25C1285.54 491.186 1288.1 483.189 1288.69 474.93C1288.69 462.209 1281.9 456.146 1278.34 454.874C1269.18 451.242 1259.17 450.346 1249.51 452.295C1239.85 454.244 1230.97 458.955 1223.94 465.856C1197.91 493.416 1172.59 525.598 1166.44 563.929C1166.4 564.478 1166.24 565.012 1165.98 565.497C1165.49 566.189 1164.81 566.72 1164.03 567.024C1150.33 574.359 1141.6 588.224 1129.89 598.57C1128.54 600.069 1126.88 601.252 1125.01 602.036C1123.15 602.82 1121.14 603.186 1119.12 603.107C1117.22 602.611 1115.49 601.568 1114.17 600.107C1112.84 598.646 1111.97 596.83 1111.66 594.881C1108.19 578.726 1118.4 561.936 1123.87 547.477C1142.91 496.851 1176.83 453.475 1206.51 405.901C1208.61 402.48 1209.74 398.552 1209.78 394.538C1209.86 391.333 1208.96 388.18 1207.19 385.507C1206.13 384.324 1204.82 383.391 1203.35 382.775C1201.88 382.159 1200.3 381.876 1198.71 381.945C1195.15 381.945 1192.56 382.581 1188.03 382.581C1175.31 382.581 1173.44 400.686 1167.97 410.099C1156.95 428.925 1146.13 447.878 1135.79 467.043C1133.71 471.753 1131.29 476.302 1128.54 480.654C1125.06 485.318 1122.73 485.572 1116.71 487.099C1105.45 489.95 1094.04 492.186 1082.53 493.798C1077.44 494.979 1072.11 494.564 1067.27 492.611C1063.26 489.754 1059.84 486.138 1057.22 481.968C1055.9 479.885 1054.05 478.191 1051.86 477.058C1049.67 475.926 1047.22 475.396 1044.75 475.523C1038.14 476.795 1035.85 485.445 1037.46 492.017C1039.07 498.589 1043.14 504.44 1043.95 511.097C1044.29 515.634 1043.77 520.193 1042.42 524.538C1036.4 547.986 1025.46 575.97 1006.59 592.379C1003.54 595.051 998.876 597.425 995.739 594.881C994.866 593.936 994.207 592.815 993.804 591.594C993.402 590.372 993.266 589.079 993.407 587.8C993.674 569.384 997.474 551.19 1004.6 534.206C1014.94 509.02 1027.07 484.606 1040.9 461.149C1053.62 438.55 1066.34 415.738 1083.76 396.743C1089.66 390.383 1096.48 382.115 1093.26 374.058C1090.29 366.893 1080.2 365.154 1073.25 368.589C1066.59 372.684 1061.22 378.559 1057.73 385.549C1046.2 404.332 1035.38 423.709 1024.74 442.875C1010.54 467.678 997.617 493.195 986.029 519.323C977.886 537.158 972.318 556.06 969.493 575.462C968.081 583.654 968.766 592.071 971.486 599.927C974.69 606.966 980.369 612.583 987.444 615.71C994.518 618.837 1002.5 619.256 1009.86 616.887C1017.74 613.581 1024.69 608.382 1030.08 601.75C1051.27 578.51 1064.62 549.203 1068.24 517.966C1068.24 516.397 1068.75 514.489 1070.19 513.726C1071.18 513.39 1072.26 513.39 1073.25 513.726C1080.06 515.015 1087.07 514.681 1093.73 512.751C1097.33 511.945 1114.08 508.893 1115.65 505.67C1109.71 517.924 1104.5 529.584 1100.51 539.93C1095.47 552.989 1088.64 566.261 1086.86 580.295C1085.86 586.105 1086.18 592.065 1087.8 597.733C1089.42 603.401 1092.3 608.629 1096.23 613.028C1100.79 617.243 1106.26 620.361 1112.21 622.145C1138.04 630.625 1155.63 603.87 1169.92 587.079C1169.92 587.673 1170.26 588.267 1170.47 588.818C1172.63 594.773 1176.01 600.212 1180.39 604.789C1184.77 609.366 1190.06 612.981 1195.91 615.403C1211.3 622.653 1223.13 624.307 1238.57 615.657C1260.75 602.549 1280.86 586.232 1298.27 567.236C1301.17 564.66 1303.37 561.393 1304.67 557.738C1305.26 555.863 1305.16 553.836 1304.38 552.029C1303.6 550.223 1302.2 548.757 1300.43 547.901C1299.75 547.635 1299.04 547.491 1298.31 547.477" fill="white"/>
<path d="M504.949 587.417C500.073 592.971 492.738 599.84 486.844 590.894C480.951 581.947 482.604 571.644 485.106 561.51C488.599 547.507 493.782 533.981 500.54 521.229C504.78 512.961 509.02 506.008 514.532 497.273C518.009 491.803 524.199 481.627 532.637 481.966C535.52 481.966 536.877 484.298 537.725 486.63C541.175 494.188 542.283 502.606 540.905 510.799C535.987 535.179 524.92 555.362 511.988 576.817C509.931 580.534 507.577 584.079 504.949 587.417ZM701.943 497.358C702.531 491.863 701.197 486.335 698.169 481.712C694.491 476.922 689.494 473.311 683.792 471.322C678.09 469.334 671.931 469.054 666.072 470.518C660.602 471.917 658.228 476.666 655.769 480.694C650.773 490.052 646.602 499.827 643.303 509.908C639.487 519.576 636.095 528.862 631.939 538.105C630.667 540.946 629.311 539.25 629.141 536.706C629.015 528.292 627.511 519.956 624.689 512.029C621.926 504.512 616.675 498.168 609.806 494.051C598.231 487.478 586.02 488.962 573.511 487.266C562.53 485.74 559.349 478.49 555.067 469.331C554.263 466.931 552.622 464.899 550.445 463.607C545.294 459.922 539.05 458.085 532.724 458.393C526.398 458.7 520.361 461.135 515.592 465.303C508.353 471.2 502.037 478.145 496.851 485.91C485.81 500.489 476.571 516.349 469.333 533.144C462.597 550.021 460.079 568.287 461.998 586.357C462.695 592.027 464.825 597.426 468.188 602.045C471.715 606.736 476.251 610.576 481.46 613.281C484.962 615.917 489.104 617.571 493.459 618.072C498.228 618.115 502.946 617.089 507.267 615.072C511.588 613.054 515.403 610.096 518.433 606.412C539.161 582.356 554.166 553.913 562.318 523.222C564.522 515.463 565.371 508.636 573.808 505.965C577.415 504.674 581.322 504.477 585.041 505.397C588.759 506.317 592.123 508.314 594.712 511.138C604.888 522.586 606.626 538.571 606.711 552.987C606.711 571.729 602.471 587.502 598.867 605.395C598.061 609.296 596.705 613.62 599.969 617.14C602.757 619.671 606.331 621.166 610.091 621.375C613.851 621.583 617.568 620.492 620.618 618.285C624.477 615.529 623.799 611.585 624.859 607.727C625.579 605.31 625.876 602.936 626.639 600.646C631.989 584.852 638.174 569.354 645.168 554.217C653.649 536.282 662.51 517.117 671.669 499.944C673.365 496.764 673.238 495.704 675.909 494.305C677.308 493.627 677.435 495.831 677.69 497.061C678.369 502.349 678.454 507.697 677.944 513.004C677.435 521.738 676.587 529.964 675.4 538.444C672.72 559.825 667.628 580.834 660.221 601.07C657.673 606.249 655.806 611.736 654.666 617.394C654.338 619.019 654.369 620.696 654.757 622.307C655.145 623.918 655.881 625.425 656.913 626.722C658.972 628.602 661.544 629.824 664.302 630.232C667.059 630.64 669.876 630.215 672.39 629.012C675.341 627.879 677.968 626.037 680.038 623.649C682.109 621.26 683.56 618.399 684.262 615.316C690.57 593.943 695.205 572.112 698.127 550.019C700.735 532.533 701.954 514.867 701.773 497.188" fill="white"/>
<path d="M230.63 807.249H201.269C200.404 799.418 196.382 795.048 189.204 795.048C181.161 795.048 175.886 803.355 175.886 817.243C175.886 831.132 181.248 839.439 189.291 839.439C196.123 839.439 200.75 834.55 201.485 826.459H231.192C229.376 850.126 213.16 862.674 189.377 862.674C162.956 862.674 147 845.367 147 817.33C147 789.293 163 771.986 189.204 771.986C213.55 771.986 229.636 784.447 230.63 807.249Z" fill="white"/>
<path d="M300.943 823.085V842.122C300.69 848.365 301.389 854.609 303.018 860.64H279.019C278.367 858.185 278.047 855.653 278.068 853.112H277.808C275.417 856.133 272.354 858.555 268.863 860.184C265.373 861.814 261.551 862.607 257.701 862.501C243.95 862.501 235.863 853.847 235.863 842.858C235.863 831.868 243.085 825.162 261.809 822.349C266.133 821.614 271.927 821.008 275.473 820.792V818.585C275.473 813.35 273.138 811.273 269.592 811.273C266.046 811.273 263.754 813.35 263.754 818.455H238.544C239.28 807.119 247.539 796.822 269.852 796.822C292.165 796.822 300.943 806.6 300.943 823.085ZM275.387 833.209C272.678 833.405 269.989 833.81 267.343 834.421C265.746 834.615 264.281 835.404 263.239 836.631C262.198 837.858 261.656 839.432 261.722 841.041C261.65 841.801 261.746 842.568 262.002 843.287C262.257 844.007 262.668 844.662 263.203 845.206C263.739 845.75 264.387 846.171 265.102 846.438C265.818 846.705 266.582 846.812 267.343 846.752C268.444 846.779 269.537 846.565 270.546 846.124C271.554 845.683 272.454 845.026 273.181 844.199C274.96 841.686 275.745 838.604 275.387 835.546V833.209Z" fill="white"/>
<path d="M352.271 860.64V854.193C350.568 856.886 348.202 859.096 345.401 860.611C342.599 862.126 339.456 862.896 336.271 862.847C319.58 862.847 308.77 849.867 308.77 829.921C308.77 809.975 319.104 796.995 335.45 796.995C338.42 796.913 341.369 797.509 344.074 798.738C346.779 799.968 349.168 801.798 351.06 804.09H351.276V774.106H377.87V860.9L352.271 860.64ZM336.444 829.661C336.444 837.622 339.471 842.641 344.488 842.641C349.504 842.641 352.53 837.406 352.53 829.661C352.53 821.916 349.504 816.681 344.488 816.681C339.471 816.681 336.444 821.743 336.444 829.661Z" fill="white"/>
<path d="M450.17 823.085V842.122C449.895 848.365 450.595 854.613 452.246 860.64H428.246C427.557 858.191 427.222 855.656 427.252 853.112H426.992C424.603 856.136 421.541 858.559 418.05 860.189C414.559 861.819 410.736 862.611 406.885 862.501C393.134 862.501 385.264 853.847 385.264 842.858C385.264 831.868 392.442 825.162 411.209 822.349C415.533 821.614 421.328 821.008 424.873 820.792V818.585C424.873 813.35 422.538 811.273 419.036 811.273C415.533 811.273 413.155 813.35 413.155 818.455H387.945C388.68 807.119 396.982 796.822 419.252 796.822C441.522 796.822 450.17 806.6 450.17 823.085ZM424.571 833.209C421.863 833.408 419.174 833.813 416.528 834.421C414.931 834.615 413.465 835.404 412.424 836.631C411.382 837.858 410.84 839.432 410.906 841.041C410.834 841.801 410.93 842.568 411.186 843.287C411.442 844.007 411.852 844.662 412.387 845.206C412.923 845.75 413.571 846.171 414.286 846.438C415.002 846.705 415.767 846.812 416.528 846.752C417.629 846.789 418.725 846.578 419.735 846.137C420.745 845.695 421.644 845.033 422.365 844.199C424.159 841.693 424.946 838.605 424.571 835.546V833.209Z" fill="white"/>
<path d="M550.103 823.085V842.122C549.85 848.365 550.55 854.609 552.179 860.64H528.18C527.528 858.185 527.208 855.653 527.228 853.112H526.969C524.577 856.133 521.515 858.555 518.024 860.184C514.534 861.814 510.712 862.607 506.861 862.501C493.11 862.501 485.24 853.847 485.24 842.858C485.24 831.868 492.418 825.162 511.185 822.349C515.51 821.614 521.304 821.008 524.85 820.792V818.585C524.85 813.35 522.515 811.273 518.969 811.273C515.423 811.273 513.131 813.35 513.131 818.455H487.618C488.354 807.119 496.613 796.822 518.926 796.822C541.239 796.822 550.103 806.6 550.103 823.085ZM524.547 833.209C521.839 833.405 519.15 833.81 516.504 834.421C514.907 834.615 513.442 835.404 512.4 836.631C511.358 837.858 510.817 839.432 510.883 841.041C510.811 841.801 510.906 842.568 511.162 843.287C511.418 844.007 511.828 844.662 512.364 845.206C512.9 845.75 513.548 846.171 514.263 846.438C514.978 846.705 515.743 846.812 516.504 846.752C517.606 846.786 518.701 846.574 519.71 846.132C520.72 845.691 521.619 845.031 522.342 844.199C524.12 841.686 524.906 838.604 524.547 835.546V833.209Z" fill="white"/>
<path d="M626.685 823.907H599.27C598.751 818.801 596.2 816.465 592.913 816.465C588.286 816.465 585.735 820.792 585.735 829.445C585.735 838.098 588.416 843.117 593.043 843.117C596.589 843.117 599.14 840.305 599.27 834.68H626.685C625.345 852.376 612.069 862.717 592.437 862.717C571.206 862.717 557.844 849.737 557.844 829.445C557.844 809.153 571.249 796.865 592.437 796.865C611.723 796.735 625.085 806.86 626.685 823.907Z" fill="white"/>
<path d="M700.066 823.907H672.651C672.132 818.801 669.58 816.465 666.294 816.465C661.667 816.465 659.116 820.792 659.116 829.445C659.116 838.098 661.797 843.117 666.424 843.117C669.97 843.117 672.521 840.305 672.651 834.68H700.066C698.725 852.376 685.45 862.717 665.818 862.717C644.63 862.717 631.225 849.737 631.225 829.445C631.225 809.153 644.63 796.865 665.818 796.865C684.931 796.735 698.466 806.86 700.066 823.907Z" fill="white"/>
<path d="M707.764 792.365V773.847H734.314V792.365H707.764ZM707.764 860.64V798.682H734.314V860.64H707.764Z" fill="white"/>
<path d="M814.657 829.661C814.657 849.78 800.517 862.587 778.55 862.587C756.583 862.587 742.486 849.607 742.486 829.661C742.486 809.715 756.627 796.735 778.55 796.735C800.474 796.735 814.657 809.542 814.657 829.661ZM764.324 792.365L774.183 773.847H801.728L784.431 792.365H764.324ZM770.507 829.661C770.507 838.315 773.188 842.987 778.55 842.987C783.912 842.987 786.593 838.228 786.593 829.661C786.593 821.095 783.912 816.378 778.55 816.378C773.188 816.378 770.507 821.138 770.507 829.661Z" fill="white"/>
<path d="M888.039 822.479V860.64H861.445V826.026C861.445 820.661 859.888 817.373 855.953 817.373C852.018 817.373 849.381 821.267 849.381 830.786V860.77H822.83V798.682H847.435V805.431H847.694C849.756 802.679 852.443 800.459 855.534 798.954C858.625 797.449 862.03 796.703 865.467 796.778C879.391 796.865 888.039 805.778 888.039 822.479Z" fill="white"/>
<path d="M992.599 823.907H965.184C964.708 818.801 962.157 816.465 958.871 816.465C954.244 816.465 951.649 820.792 951.649 829.445C951.649 838.098 954.33 843.117 958.957 843.117C962.503 843.117 965.054 840.305 965.184 834.68H992.599C991.259 852.376 977.983 862.717 958.351 862.717C937.163 862.717 923.758 849.737 923.758 829.445C923.758 809.153 937.163 796.865 958.351 796.865C977.508 796.735 991.043 806.86 992.599 823.907Z" fill="white"/>
<path d="M999.689 836.886V798.682H1026.28V833.295C1026.28 838.66 1027.84 841.949 1031.73 841.949C1035.62 841.949 1038.35 838.055 1038.35 828.536V798.509H1064.9V860.467H1040.29V853.761H1040.03C1037.97 856.513 1035.29 858.733 1032.19 860.238C1029.1 861.743 1025.7 862.489 1022.26 862.414C1008.34 862.5 999.689 853.587 999.689 836.886Z" fill="white"/>
<path d="M1113.89 841.213H1140.96C1138.15 853.544 1124.88 862.544 1107.8 862.544C1084.92 862.544 1073.2 847.66 1073.2 829.272C1073.2 810.883 1085.4 796.692 1107.45 796.692C1123.06 796.692 1133.79 803.528 1138.89 815.123C1141.41 821.425 1142.5 828.208 1142.09 834.983H1099.28C1099.8 843.896 1103.21 845.973 1107.45 845.973C1111.69 845.973 1113.68 844.069 1113.89 841.213ZM1099.28 821.96H1115.23C1114.89 814.864 1111.34 812.571 1107.32 812.571C1103.3 812.571 1100.36 814.561 1099.28 822.003V821.96Z" fill="white"/>
<path d="M1215.34 822.479V860.64H1188.75V826.026C1188.75 820.661 1187.19 817.373 1183.25 817.373C1179.32 817.373 1176.68 821.267 1176.68 830.786V860.77H1150.13V798.682H1174.74V805.431H1175C1177.06 802.679 1179.74 800.459 1182.84 798.954C1185.93 797.449 1189.33 796.703 1192.77 796.778C1206.69 796.865 1215.34 805.778 1215.34 822.479Z" fill="white"/>
<path d="M1268.48 840.651V860.164C1264.38 861.215 1260.17 861.782 1255.94 861.852C1237.87 861.852 1230 855.275 1230 840.219V817.417H1221V798.596H1230.08V780.64H1256.68V798.553H1268.01V817.374H1256.68V832.56C1256.68 838.92 1258.75 841.473 1264.12 841.473C1265.6 841.404 1267.07 841.128 1268.48 840.651Z" fill="white"/>
<path d="M1338.92 823.085V842.122C1338.67 848.365 1339.37 854.609 1341 860.64H1317C1316.35 858.185 1316.03 855.653 1316.05 853.112H1315.79C1313.4 856.133 1310.33 858.555 1306.84 860.184C1303.35 861.814 1299.53 862.607 1295.68 862.501C1281.93 862.501 1274.06 853.847 1274.06 842.858C1274.06 831.868 1281.28 825.162 1300.01 822.349C1304.33 821.614 1310.12 821.008 1313.67 820.792V818.585C1313.67 813.35 1311.34 811.273 1307.79 811.273C1304.24 811.273 1301.95 813.35 1301.95 818.455H1276.74C1277.48 807.119 1285.74 796.822 1308.05 796.822C1330.36 796.822 1338.92 806.6 1338.92 823.085ZM1313.37 833.209C1310.66 833.405 1307.97 833.81 1305.32 834.421C1303.73 834.615 1302.26 835.404 1301.22 836.631C1300.18 837.858 1299.64 839.432 1299.7 841.041C1299.63 841.801 1299.73 842.568 1299.98 843.287C1300.24 844.007 1300.65 844.662 1301.18 845.206C1301.72 845.75 1302.37 846.171 1303.08 846.438C1303.8 846.705 1304.56 846.812 1305.32 846.752C1306.43 846.786 1307.52 846.574 1308.53 846.132C1309.54 845.691 1310.44 845.031 1311.16 844.199C1312.94 841.686 1313.73 838.604 1313.37 835.546V833.209Z" fill="white"/>
</svg>
